<?xml version="1.0" encoding="utf-8"?>
<!-- Generator: Adobe Illustrator 26.0.0, SVG Export Plug-In . SVG Version: 6.00 Build 0)  -->
<svg version="1.1" id="Capa_1" xmlns="http://www.w3.org/2000/svg" xmlns:xlink="http://www.w3.org/1999/xlink" x="0px" y="0px"
	 viewBox="0 0 242.8 121.7" style="enable-background:new 0 0 242.8 121.7;" xml:space="preserve">
<style type="text/css">
	.st0{fill:#83EEFF;}
	.st1{enable-background:new    ;}
	.st2{fill:url(#SVGID_1_);}
	.st3{fill:url(#SVGID_00000079448241040481944220000001918328542595954335_);}
	.st4{fill:url(#SVGID_00000097487874447792464770000016298082279853293208_);}
	.st5{fill:url(#SVGID_00000145778321282203000720000009080355913601291162_);}
	.st6{fill:url(#SVGID_00000093136199191394190820000005358731695164284862_);}
	.st7{fill:url(#SVGID_00000036974314100475126960000000265346206023737735_);}
</style>
<g>
	<g>
		<path class="st0" d="M195.1,56H195c-0.6,0-1.2-0.5-1.2-1.2v-0.2c0-0.6,0.5-1.2,1.2-1.2h0.2c0.6,0,1.2,0.5,1.2,1.2v0.1
			C196.3,55.4,195.8,56,195.1,56z M199.8,58.3v-0.2c0-0.6-0.5-1.2-1.2-1.2h-0.2c-0.6,0-1.2,0.5-1.2,1.2v0.2c0,0.6,0.5,1.2,1.2,1.2
			h0.2C199.2,59.5,199.8,58.9,199.8,58.3z M198.4,56h0.2c0.6,0,1.2-0.5,1.2-1.2v-0.2c0-0.6-0.5-1.2-1.2-1.2h-0.2
			c-0.6,0-1.2,0.5-1.2,1.2v0.2C197.3,55.4,197.8,56,198.4,56z M195,59.5h0.2c0.6,0,1.2-0.5,1.2-1.2v-0.1c0-0.6-0.5-1.2-1.2-1.2H195
			c-0.6,0-1.2,0.5-1.2,1.2v0.2C193.8,58.9,194.3,59.5,195,59.5z"/>
		<path class="st0" d="M61.6,50h-0.1c-0.6,0-1.2-0.5-1.2-1.2v-0.2c0-0.6,0.5-1.2,1.2-1.2h0.2c0.6,0,1.2,0.5,1.2,1.2v0.2
			C62.8,49.5,62.3,50,61.6,50z M66.3,52.3v-0.2c0-0.6-0.5-1.2-1.2-1.2H65c-0.6,0-1.2,0.5-1.2,1.2v0.2c0,0.6,0.5,1.2,1.2,1.2h0.2
			C65.8,53.5,66.3,52.9,66.3,52.3z M65,50h0.2c0.6,0,1.2-0.5,1.2-1.2v-0.2c0-0.6-0.5-1.2-1.2-1.2H65c-0.6,0-1.2,0.5-1.2,1.2v0.2
			C63.8,49.5,64.3,50,65,50z M61.5,53.5h0.1c0.6,0,1.2-0.5,1.2-1.2v-0.2c0-0.6-0.5-1.2-1.2-1.2h-0.1c-0.6,0-1.2,0.5-1.2,1.2v0.2
			C60.3,52.9,60.8,53.5,61.5,53.5z"/>
		<g>
			<path class="st0" d="M101.6,121.7h-0.7c-0.7,0-1.2-0.5-1.2-1.2v-0.8c0-0.7,0.5-1.2,1.2-1.2h0.7c0.7,0,1.2,0.5,1.2,1.2v0.8
				C102.8,121.2,102.3,121.7,101.6,121.7z M100.9,118.8c-0.5,0-0.9,0.4-0.9,0.9v0.8c0,0.5,0.4,0.9,0.9,0.9h0.7
				c0.5,0,0.9-0.4,0.9-0.9v-0.8c0-0.5-0.4-0.9-0.9-0.9H100.9z M97.5,121.7h-0.8c-0.7,0-1.2-0.5-1.2-1.2v-0.8c0-0.7,0.5-1.2,1.2-1.2
				h0.8c0.7,0,1.2,0.5,1.2,1.2v0.8C98.8,121.2,98.2,121.7,97.5,121.7z M96.8,118.8c-0.5,0-0.9,0.4-0.9,0.9v0.8
				c0,0.5,0.4,0.9,0.9,0.9h0.8c0.5,0,0.9-0.4,0.9-0.9v-0.8c0-0.5-0.4-0.9-0.9-0.9H96.8z M101.6,117.7h-0.7c-0.7,0-1.2-0.5-1.2-1.2
				v-0.7c0-0.7,0.5-1.2,1.2-1.2h0.7c0.7,0,1.2,0.5,1.2,1.2v0.7C102.8,117.1,102.3,117.7,101.6,117.7z M100.9,114.7
				c-0.5,0-0.9,0.4-0.9,0.9v0.7c0,0.5,0.4,0.9,0.9,0.9h0.7c0.5,0,0.9-0.4,0.9-0.9v-0.7c0-0.5-0.4-0.9-0.9-0.9H100.9z M97.5,117.7
				h-0.8c-0.7,0-1.2-0.5-1.2-1.2v-0.7c0-0.7,0.5-1.2,1.2-1.2h0.8c0.7,0,1.2,0.5,1.2,1.2v0.7C98.8,117.1,98.2,117.7,97.5,117.7z
				 M96.8,114.7c-0.5,0-0.9,0.4-0.9,0.9v0.7c0,0.5,0.4,0.9,0.9,0.9h0.8c0.5,0,0.9-0.4,0.9-0.9v-0.7c0-0.5-0.4-0.9-0.9-0.9H96.8z"/>
		</g>
		<g>
			<path class="st0" d="M161.8,4.5h-0.5c-0.4,0-0.8-0.3-0.8-0.8V3.3c0-0.4,0.3-0.8,0.8-0.8h0.5c0.4,0,0.8,0.3,0.8,0.8v0.5
				C162.6,4.2,162.3,4.5,161.8,4.5z M161.4,2.7c-0.3,0-0.6,0.3-0.6,0.6v0.5c0,0.3,0.3,0.6,0.6,0.6h0.5c0.3,0,0.6-0.3,0.6-0.6V3.3
				c0-0.3-0.3-0.6-0.6-0.6H161.4z M159.3,4.5h-0.5c-0.4,0-0.8-0.3-0.8-0.8V3.3c0-0.4,0.3-0.8,0.8-0.8h0.5c0.4,0,0.8,0.3,0.8,0.8v0.5
				C160.1,4.2,159.7,4.5,159.3,4.5z M158.8,2.7c-0.3,0-0.6,0.3-0.6,0.6v0.5c0,0.3,0.3,0.6,0.6,0.6h0.5c0.3,0,0.6-0.3,0.6-0.6V3.3
				c0-0.3-0.3-0.6-0.6-0.6H158.8z M161.8,2h-0.5c-0.4,0-0.8-0.3-0.8-0.8V0.8c0-0.4,0.3-0.8,0.8-0.8h0.5c0.4,0,0.8,0.3,0.8,0.8v0.5
				C162.6,1.6,162.3,2,161.8,2z M161.4,0.2c-0.3,0-0.6,0.3-0.6,0.6v0.5c0,0.3,0.3,0.6,0.6,0.6h0.5c0.3,0,0.6-0.3,0.6-0.6V0.8
				c0-0.3-0.3-0.6-0.6-0.6H161.4z M159.3,2h-0.5c-0.4,0-0.8-0.3-0.8-0.8V0.8c0-0.4,0.3-0.8,0.8-0.8h0.5c0.4,0,0.8,0.3,0.8,0.8v0.5
				C160.1,1.6,159.7,2,159.3,2z M158.8,0.2c-0.3,0-0.6,0.3-0.6,0.6v0.5c0,0.3,0.3,0.6,0.6,0.6h0.5c0.3,0,0.6-0.3,0.6-0.6V0.8
				c0-0.3-0.3-0.6-0.6-0.6H158.8z"/>
		</g>
		<path class="st0" d="M170.5,74.1h-0.4c-1.8,0-3.3-1.5-3.3-3.3v-0.4c0-1.8,1.5-3.3,3.3-3.3h0.4c1.8,0,3.3,1.5,3.3,3.3v0.4
			C173.8,72.6,172.3,74.1,170.5,74.1z"/>
		<path class="st0" d="M86.6,116.6h-0.2c-0.8,0-1.4-0.6-1.4-1.4V115c0-0.8,0.6-1.4,1.4-1.4h0.2c0.8,0,1.4,0.6,1.4,1.4v0.2
			C88.1,116,87.4,116.6,86.6,116.6z"/>
		<g>
			<path class="st0" d="M191.2,86h-1.8c-1.7,0-3.1-1.4-3.1-3.1v-1.8c0-1.7,1.4-3.1,3.1-3.1h1.8c1.7,0,3.1,1.4,3.1,3.1v1.8
				C194.3,84.6,192.9,86,191.2,86z M189.3,78.9c-1.2,0-2.2,1-2.2,2.2v1.8c0,1.2,1,2.2,2.2,2.2h1.8c1.2,0,2.2-1,2.2-2.2v-1.8
				c0-1.2-1-2.2-2.2-2.2H189.3z"/>
		</g>
		<g>
			<path class="st0" d="M53,83.1h-0.7c-0.7,0-1.2-0.5-1.2-1.2v-0.7c0-0.7,0.5-1.2,1.2-1.2H53c0.7,0,1.2,0.5,1.2,1.2V82
				C54.2,82.6,53.7,83.1,53,83.1z M52.3,80.4c-0.5,0-0.8,0.4-0.8,0.8V82c0,0.5,0.4,0.8,0.8,0.8H53c0.5,0,0.8-0.4,0.8-0.8v-0.7
				c0-0.5-0.4-0.8-0.8-0.8H52.3z"/>
		</g>
		<g>
			<path class="st0" d="M63.2,87.2v2.7c0,0.3,0.2,0.5,0.5,0.5h4.5c0.3,0,0.5-0.2,0.5-0.5v-2.7c0-0.3-0.2-0.5-0.5-0.5h-4.5
				C63.4,86.7,63.2,86.9,63.2,87.2z M66.2,88.5l0.1,0.8h-0.5l0.1-0.8c-0.1-0.1-0.2-0.2-0.2-0.4c0-0.2,0.2-0.3,0.3-0.3
				c0.2,0,0.4,0.2,0.4,0.4C66.3,88.3,66.3,88.5,66.2,88.5z"/>
			<path class="st0" d="M66,82.8L66,82.8c-1.1,0-2.1,0.9-2.1,2.1v1h0.7v-1c0-0.7,0.6-1.4,1.4-1.4c0.7,0,1.4,0.6,1.4,1.4v1.9H68v-1.9
				C68,83.7,67.1,82.8,66,82.8z"/>
		</g>
		<g>
			<path class="st0" d="M144.4,96.6l-0.8-0.2c-0.1-0.2-0.1-0.4-0.2-0.6l0.4-0.7c0-0.1,0-0.1,0-0.2l-0.6-0.6c0,0-0.1-0.1-0.2,0
				l-0.7,0.4c-0.2-0.1-0.4-0.2-0.6-0.2l-0.2-0.8c0-0.1-0.1-0.1-0.1-0.1h-0.9c-0.1,0-0.1,0-0.1,0.1l-0.2,0.8
				c-0.2,0.1-0.4,0.1-0.6,0.2l-0.7-0.4c-0.1,0-0.1,0-0.2,0l-0.6,0.6c-0.1,0.1-0.1,0.1,0,0.2l0.4,0.7c-0.1,0.2-0.2,0.4-0.2,0.6
				l-0.8,0.2c-0.1,0-0.1,0.1-0.1,0.1v0.9c0,0.1,0,0.1,0.1,0.1l0.8,0.2c0.1,0.2,0.1,0.4,0.2,0.6l-0.4,0.7c0,0.1,0,0.1,0,0.2l0.6,0.6
				c0,0,0.1,0,0.1,0c0,0,0.1,0,0.1,0l0.7-0.4c0.2,0.1,0.4,0.2,0.6,0.2l0.2,0.8c0,0.1,0.1,0.1,0.1,0.1h0.9c0.1,0,0.1,0,0.1-0.1
				l0.2-0.8c0.2-0.1,0.4-0.1,0.6-0.2l0.7,0.4c0,0,0.1,0,0.1,0c0,0,0.1,0,0.1,0l0.6-0.6c0,0,0.1-0.1,0-0.2l-0.4-0.7
				c0.1-0.2,0.2-0.4,0.2-0.6l0.8-0.2c0.1,0,0.1-0.1,0.1-0.1v-0.9C144.5,96.7,144.5,96.6,144.4,96.6z M141.6,97.2
				c0,0.4-0.3,0.7-0.7,0.7c-0.4,0-0.7-0.3-0.7-0.7c0-0.4,0.3-0.7,0.7-0.7C141.3,96.5,141.6,96.8,141.6,97.2z"/>
		</g>
		<g>
			<path class="st0" d="M170.1,96.1l-0.6-0.1c0-0.2-0.1-0.3-0.2-0.4l0.3-0.5c0,0,0-0.1,0-0.1l-0.5-0.5c0,0-0.1,0-0.1,0l-0.5,0.3
				c-0.1-0.1-0.3-0.1-0.4-0.2L168,94c0,0-0.1-0.1-0.1-0.1h-0.6c-0.1,0-0.1,0-0.1,0.1l-0.1,0.6c-0.2,0-0.3,0.1-0.4,0.2l-0.5-0.3
				c0,0-0.1,0-0.1,0l-0.5,0.5c0,0,0,0.1,0,0.1l0.3,0.5c-0.1,0.1-0.1,0.3-0.2,0.4l-0.6,0.1c0,0-0.1,0.1-0.1,0.1v0.6
				c0,0,0,0.1,0.1,0.1l0.6,0.1c0,0.2,0.1,0.3,0.2,0.4l-0.3,0.5c0,0,0,0.1,0,0.1l0.5,0.5c0,0,0.1,0,0.1,0c0,0,0,0,0.1,0l0.5-0.3
				c0.1,0.1,0.3,0.1,0.4,0.2l0.1,0.6c0,0,0.1,0.1,0.1,0.1h0.6c0.1,0,0.1,0,0.1-0.1l0.1-0.6c0.2,0,0.3-0.1,0.4-0.2l0.5,0.3
				c0,0,0,0,0.1,0c0,0,0.1,0,0.1,0l0.5-0.5c0,0,0-0.1,0-0.1l-0.3-0.5c0.1-0.1,0.1-0.3,0.2-0.4l0.6-0.1c0,0,0.1-0.1,0.1-0.1v-0.6
				C170.2,96.2,170.1,96.1,170.1,96.1z M168.1,96.5c0,0.3-0.2,0.5-0.5,0.5c-0.3,0-0.5-0.2-0.5-0.5c0-0.3,0.2-0.5,0.5-0.5
				C167.9,96,168.1,96.3,168.1,96.5z"/>
		</g>
		<g>
			<path class="st0" d="M145.6,91.6c0-0.1,0-0.2,0-0.3c0-0.1,0-0.2,0-0.3l0.3-0.3c0.1-0.1,0.1-0.2,0-0.3l-0.2-0.4
				c-0.1-0.1-0.2-0.1-0.3-0.1l-0.4,0.1c-0.1-0.1-0.3-0.2-0.5-0.3l-0.1-0.4c0-0.1-0.1-0.2-0.2-0.2h-0.5c-0.1,0-0.2,0.1-0.2,0.2
				l-0.1,0.4c-0.2,0.1-0.3,0.2-0.5,0.3l-0.4-0.1c-0.1,0-0.2,0-0.3,0.1l-0.2,0.4c-0.1,0.1,0,0.2,0,0.3l0.3,0.3c0,0.1,0,0.2,0,0.3
				c0,0.1,0,0.2,0,0.3l-0.3,0.3c-0.1,0.1-0.1,0.2,0,0.3l0.2,0.4c0,0.1,0.1,0.1,0.2,0.1c0,0,0,0,0.1,0l0.4-0.1
				c0.1,0.1,0.3,0.2,0.5,0.3l0.1,0.4c0,0.1,0.1,0.2,0.2,0.2h0.5c0.1,0,0.2-0.1,0.2-0.2l0.1-0.4c0.2-0.1,0.3-0.2,0.5-0.3l0.4,0.1
				c0,0,0,0,0.1,0c0.1,0,0.2,0,0.2-0.1l0.2-0.4c0.1-0.1,0-0.2,0-0.3L145.6,91.6z M144,92c-0.4,0-0.7-0.3-0.7-0.7
				c0-0.4,0.3-0.7,0.7-0.7c0.4,0,0.7,0.3,0.7,0.7C144.7,91.7,144.4,92,144,92z"/>
		</g>
		<g>
			<path class="st0" d="M45.4,51c0-0.1,0-0.3,0-0.4s0-0.3,0-0.4l0.5-0.5c0.1-0.1,0.2-0.3,0.1-0.5l-0.4-0.7c-0.1-0.1-0.3-0.2-0.4-0.2
				l-0.7,0.2c-0.2-0.2-0.5-0.3-0.7-0.4l-0.2-0.7c0-0.2-0.2-0.3-0.4-0.3h-0.8c-0.2,0-0.3,0.1-0.4,0.3l-0.2,0.7
				c-0.3,0.1-0.5,0.2-0.8,0.4l-0.7-0.2c-0.2-0.1-0.3,0-0.4,0.2l-0.4,0.7c-0.1,0.1-0.1,0.3,0.1,0.5l0.5,0.5c0,0.1,0,0.3,0,0.4
				s0,0.3,0,0.4l-0.5,0.5c-0.1,0.1-0.2,0.3-0.1,0.4l0.4,0.7c0.1,0.1,0.2,0.2,0.3,0.2c0,0,0.1,0,0.1,0l0.7-0.2
				c0.2,0.2,0.5,0.3,0.8,0.4l0.2,0.7c0,0.2,0.2,0.3,0.4,0.3h0.8c0.2,0,0.3-0.1,0.4-0.3l0.2-0.7c0.3-0.1,0.5-0.2,0.7-0.4l0.7,0.2
				c0,0,0.1,0,0.1,0c0.1,0,0.2-0.1,0.3-0.2l0.4-0.7c0.1-0.1,0.1-0.3-0.1-0.4L45.4,51z M42.8,51.7c-0.6,0-1.1-0.5-1.1-1.1
				c0-0.6,0.5-1.1,1.1-1.1c0.6,0,1.1,0.5,1.1,1.1C44,51.2,43.5,51.7,42.8,51.7z"/>
		</g>
		<g>
			<path class="st0" d="M210.6,37.3l-0.3-0.1c0-0.1-0.1-0.3-0.2-0.4l0.2-0.3c0-0.1,0-0.2,0-0.2l-0.4-0.4c-0.1-0.1-0.2-0.1-0.2,0
				l-0.3,0.2c-0.1-0.1-0.3-0.1-0.4-0.2l-0.1-0.3c0-0.1-0.1-0.1-0.2-0.1h-0.6c-0.1,0-0.2,0.1-0.2,0.1l-0.1,0.3
				c-0.1,0-0.3,0.1-0.4,0.2l-0.3-0.2c-0.1,0-0.2,0-0.2,0l-0.4,0.4c-0.1,0.1-0.1,0.2,0,0.2l0.2,0.3c-0.1,0.1-0.1,0.3-0.2,0.4
				l-0.3,0.1c-0.1,0-0.1,0.1-0.1,0.2V38c0,0.1,0.1,0.2,0.1,0.2l0.3,0.1c0,0.1,0.1,0.3,0.2,0.4l-0.2,0.3c0,0.1,0,0.2,0,0.2l0.4,0.4
				c0,0,0.1,0.1,0.1,0.1c0,0,0.1,0,0.1,0l0.3-0.2c0.1,0.1,0.3,0.1,0.4,0.2l0.1,0.3c0,0.1,0.1,0.1,0.2,0.1h0.6c0.1,0,0.2-0.1,0.2-0.1
				l0.1-0.3c0.1,0,0.3-0.1,0.4-0.2l0.3,0.2c0,0,0.1,0,0.1,0c0,0,0.1,0,0.1-0.1l0.4-0.4c0.1-0.1,0.1-0.2,0-0.2l-0.2-0.3
				c0.1-0.1,0.1-0.3,0.2-0.4l0.3-0.1c0.1,0,0.1-0.1,0.1-0.2v-0.6C210.8,37.4,210.7,37.3,210.6,37.3z M209.6,37.7
				c0,0.7-0.5,1.2-1.2,1.2c-0.7,0-1.2-0.5-1.2-1.2c0-0.7,0.5-1.2,1.2-1.2C209.1,36.5,209.6,37.1,209.6,37.7z"/>
		</g>
		<g>
			<path class="st0" d="M49.5,46.7l-0.3-0.1c0-0.1-0.1-0.2-0.1-0.3l0.1-0.2c0-0.1,0-0.1,0-0.2l-0.3-0.3c0,0-0.1-0.1-0.2,0l-0.2,0.1
				c-0.1-0.1-0.2-0.1-0.3-0.1l-0.1-0.3c0-0.1-0.1-0.1-0.1-0.1h-0.4c-0.1,0-0.1,0-0.1,0.1l-0.1,0.3c-0.1,0-0.2,0.1-0.3,0.1l-0.2-0.1
				c-0.1,0-0.1,0-0.2,0L46.5,46c0,0-0.1,0.1,0,0.2l0.1,0.2c-0.1,0.1-0.1,0.2-0.1,0.3l-0.3,0.1c-0.1,0-0.1,0.1-0.1,0.1v0.4
				c0,0.1,0,0.1,0.1,0.1l0.3,0.1c0,0.1,0.1,0.2,0.1,0.3L46.5,48c0,0.1,0,0.1,0,0.2l0.3,0.3c0,0,0.1,0,0.1,0c0,0,0.1,0,0.1,0l0.2-0.1
				c0.1,0.1,0.2,0.1,0.3,0.1l0.1,0.3c0,0.1,0.1,0.1,0.1,0.1h0.4c0.1,0,0.1,0,0.1-0.1l0.1-0.3c0.1,0,0.2-0.1,0.3-0.1l0.2,0.1
				c0,0,0,0,0.1,0c0,0,0.1,0,0.1,0l0.3-0.3c0,0,0.1-0.1,0-0.2l-0.1-0.2c0.1-0.1,0.1-0.2,0.1-0.3l0.3-0.1c0.1,0,0.1-0.1,0.1-0.1v-0.4
				C49.6,46.8,49.5,46.7,49.5,46.7z M48.7,47.1c0,0.5-0.4,0.9-0.9,0.9c-0.5,0-0.9-0.4-0.9-0.9c0-0.5,0.4-0.9,0.9-0.9
				C48.3,46.2,48.7,46.6,48.7,47.1z"/>
		</g>
		<g>
			<path class="st0" d="M73.8,40c-0.9-1.4-2.7-1.7-4-0.9c-1.4,0.9-1.7,2.7-0.9,4c0.9,1.4,2.7,1.7,4,0.9S74.7,41.4,73.8,40z"/>
		</g>
		<g>
			<g>
				<path class="st0" d="M159.9,91.3c-0.1,0-0.1-0.1-0.1-0.1v-0.4c0-0.1,0.1-0.1,0.1-0.1c0.1,0,0.1,0.1,0.1,0.1v0.4
					C160,91.2,160,91.3,159.9,91.3z"/>
			</g>
			<g>
				<path class="st0" d="M159.9,94c-0.1,0-0.1-0.1-0.1-0.1v-0.4c0-0.1,0.1-0.1,0.1-0.1c0.1,0,0.1,0.1,0.1,0.1v0.4
					C160,93.9,160,94,159.9,94z"/>
			</g>
			<g>
				<path class="st0" d="M159.3,91.4c0,0-0.1,0-0.1-0.1L159,91c0-0.1,0-0.1,0-0.2c0.1,0,0.1,0,0.2,0l0.2,0.3
					C159.5,91.3,159.4,91.4,159.3,91.4C159.4,91.4,159.3,91.4,159.3,91.4z"/>
			</g>
			<g>
				<path class="st0" d="M160.7,93.8c0,0-0.1,0-0.1-0.1l-0.2-0.3c0-0.1,0-0.1,0-0.2c0.1,0,0.1,0,0.2,0l0.2,0.3
					C160.8,93.6,160.8,93.7,160.7,93.8C160.7,93.8,160.7,93.8,160.7,93.8z"/>
			</g>
			<g>
				<path class="st0" d="M158.9,91.8C158.9,91.8,158.8,91.8,158.9,91.8l-0.4-0.2c-0.1,0-0.1-0.1,0-0.2c0-0.1,0.1-0.1,0.2,0l0.3,0.2
					c0.1,0,0.1,0.1,0,0.2C159,91.8,158.9,91.8,158.9,91.8z"/>
			</g>
			<g>
				<path class="st0" d="M161.2,93.2C161.2,93.2,161.2,93.2,161.2,93.2l-0.4-0.2c-0.1,0-0.1-0.1,0-0.2c0-0.1,0.1-0.1,0.2,0l0.3,0.2
					c0.1,0,0.1,0.1,0,0.2C161.3,93.2,161.3,93.2,161.2,93.2z"/>
			</g>
			<g>
				<path class="st0" d="M158.7,92.4h-0.4c-0.1,0-0.1-0.1-0.1-0.1c0-0.1,0.1-0.1,0.1-0.1h0.4c0.1,0,0.1,0.1,0.1,0.1
					C158.8,92.4,158.8,92.4,158.7,92.4z"/>
			</g>
			<g>
				<path class="st0" d="M161.4,92.4h-0.4c-0.1,0-0.1-0.1-0.1-0.1c0-0.1,0.1-0.1,0.1-0.1h0.4c0.1,0,0.1,0.1,0.1,0.1
					C161.6,92.4,161.5,92.4,161.4,92.4z"/>
			</g>
			<g>
				<path class="st0" d="M158.6,93.2c0,0-0.1,0-0.1-0.1c0-0.1,0-0.1,0-0.2l0.3-0.2c0.1,0,0.1,0,0.2,0c0,0.1,0,0.1,0,0.2L158.6,93.2
					C158.6,93.2,158.6,93.2,158.6,93.2z"/>
			</g>
			<g>
				<path class="st0" d="M160.9,91.8c0,0-0.1,0-0.1-0.1c0-0.1,0-0.1,0-0.2l0.3-0.2c0.1,0,0.1,0,0.2,0c0,0.1,0,0.1,0,0.2L160.9,91.8
					C161,91.8,160.9,91.8,160.9,91.8z"/>
			</g>
			<g>
				<path class="st0" d="M159.1,93.8C159.1,93.8,159.1,93.8,159.1,93.8c-0.1,0-0.1-0.1-0.1-0.2l0.2-0.3c0-0.1,0.1-0.1,0.2,0
					c0.1,0,0.1,0.1,0,0.2l-0.2,0.3C159.2,93.7,159.2,93.8,159.1,93.8z"/>
			</g>
			<g>
				<path class="st0" d="M160.5,91.4C160.5,91.4,160.5,91.4,160.5,91.4c-0.1,0-0.1-0.1-0.1-0.2l0.2-0.3c0-0.1,0.1-0.1,0.2,0
					c0.1,0,0.1,0.1,0,0.2l-0.2,0.3C160.6,91.4,160.5,91.4,160.5,91.4z"/>
			</g>
		</g>
		<g>
			<g>
				<path class="st0" d="M22.6,40.3c-0.1,0-0.1,0.1-0.1,0.1v0.4c0,0.1,0.1,0.1,0.1,0.1c0.1,0,0.1-0.1,0.1-0.1v-0.4
					C22.7,40.3,22.7,40.3,22.6,40.3z"/>
			</g>
			<g>
				<path class="st0" d="M22.6,37.6c-0.1,0-0.1,0.1-0.1,0.1V38c0,0.1,0.1,0.1,0.1,0.1c0.1,0,0.1-0.1,0.1-0.1v-0.4
					C22.7,37.6,22.7,37.6,22.6,37.6z"/>
			</g>
			<g>
				<path class="st0" d="M22,40.1c0,0-0.1,0-0.1,0.1l-0.2,0.3c0,0.1,0,0.1,0,0.2c0.1,0,0.1,0,0.2,0l0.2-0.3
					C22.2,40.2,22.1,40.2,22,40.1C22.1,40.1,22.1,40.1,22,40.1z"/>
			</g>
			<g>
				<path class="st0" d="M23.4,37.8c0,0-0.1,0-0.1,0.1l-0.2,0.3c0,0.1,0,0.1,0,0.2c0.1,0,0.1,0,0.2,0l0.2-0.3
					C23.5,37.9,23.5,37.8,23.4,37.8C23.4,37.8,23.4,37.8,23.4,37.8z"/>
			</g>
			<g>
				<path class="st0" d="M21.6,39.7C21.6,39.7,21.6,39.7,21.6,39.7l-0.4,0.2c-0.1,0-0.1,0.1,0,0.2c0,0.1,0.1,0.1,0.2,0l0.3-0.2
					c0.1,0,0.1-0.1,0-0.2C21.7,39.7,21.6,39.7,21.6,39.7z"/>
			</g>
			<g>
				<path class="st0" d="M24,38.3C23.9,38.3,23.9,38.3,24,38.3l-0.4,0.2c-0.1,0-0.1,0.1,0,0.2c0,0.1,0.1,0.1,0.2,0l0.3-0.2
					c0.1,0,0.1-0.1,0-0.2C24,38.3,24,38.3,24,38.3z"/>
			</g>
			<g>
				<path class="st0" d="M21.4,39.1h-0.4c-0.1,0-0.1,0.1-0.1,0.1c0,0.1,0.1,0.1,0.1,0.1h0.4c0.1,0,0.1-0.1,0.1-0.1
					C21.6,39.2,21.5,39.1,21.4,39.1z"/>
			</g>
			<g>
				<path class="st0" d="M24.2,39.1h-0.4c-0.1,0-0.1,0.1-0.1,0.1c0,0.1,0.1,0.1,0.1,0.1h0.4c0.1,0,0.1-0.1,0.1-0.1
					C24.3,39.2,24.2,39.1,24.2,39.1z"/>
			</g>
			<g>
				<path class="st0" d="M21.3,38.3c0,0-0.1,0-0.1,0.1c0,0.1,0,0.1,0,0.2l0.3,0.2c0.1,0,0.1,0,0.2,0c0-0.1,0-0.1,0-0.2L21.3,38.3
					C21.3,38.3,21.3,38.3,21.3,38.3z"/>
			</g>
			<g>
				<path class="st0" d="M23.6,39.7c0,0-0.1,0-0.1,0.1c0,0.1,0,0.1,0,0.2l0.3,0.2c0.1,0,0.1,0,0.2,0c0-0.1,0-0.1,0-0.2L23.6,39.7
					C23.7,39.7,23.7,39.7,23.6,39.7z"/>
			</g>
			<g>
				<path class="st0" d="M21.8,37.8C21.8,37.8,21.8,37.8,21.8,37.8c-0.1,0-0.1,0.1-0.1,0.2l0.2,0.3c0,0.1,0.1,0.1,0.2,0
					c0.1,0,0.1-0.1,0-0.2L22,37.8C21.9,37.8,21.9,37.8,21.8,37.8z"/>
			</g>
			<g>
				<path class="st0" d="M23.2,40.1C23.2,40.1,23.2,40.1,23.2,40.1c-0.1,0-0.1,0.1-0.1,0.2l0.2,0.3c0,0.1,0.1,0.1,0.2,0
					c0.1,0,0.1-0.1,0-0.2l-0.2-0.3C23.3,40.1,23.2,40.1,23.2,40.1z"/>
			</g>
		</g>
		<g>
			<g>
				<path class="st0" d="M62.7,25.2c-0.2,0-0.4-0.2-0.4-0.4v-0.2c0-0.2,0.2-0.4,0.4-0.4c0.2,0,0.4,0.2,0.4,0.4v0.2
					C63.1,25.1,62.9,25.2,62.7,25.2z"/>
			</g>
			<g>
				<path class="st0" d="M62.7,29.9c-0.2,0-0.4-0.2-0.4-0.4v-0.2c0-0.2,0.2-0.4,0.4-0.4c0.2,0,0.4,0.2,0.4,0.4v0.2
					C63.1,29.8,62.9,29.9,62.7,29.9z"/>
			</g>
			<g>
				<path class="st0" d="M61.1,25.9c-0.1,0-0.2,0-0.3-0.1l-0.1-0.1c-0.2-0.2-0.2-0.4,0-0.6c0.2-0.2,0.4-0.2,0.6,0l0.1,0.1
					c0.2,0.2,0.2,0.4,0,0.6C61.3,25.9,61.2,25.9,61.1,25.9z"/>
			</g>
			<g>
				<path class="st0" d="M64.4,29.2c-0.1,0-0.2,0-0.3-0.1L64,29c-0.2-0.2-0.2-0.4,0-0.6c0.2-0.2,0.4-0.2,0.6,0l0.1,0.1
					c0.2,0.2,0.2,0.4,0,0.6C64.6,29.2,64.5,29.2,64.4,29.2z"/>
			</g>
			<g>
				<path class="st0" d="M60.4,27.5h-0.2c-0.2,0-0.4-0.2-0.4-0.4c0-0.2,0.2-0.4,0.4-0.4h0.2c0.2,0,0.4,0.2,0.4,0.4
					C60.8,27.3,60.6,27.5,60.4,27.5z"/>
			</g>
			<g>
				<path class="st0" d="M65.1,27.5h-0.2c-0.2,0-0.4-0.2-0.4-0.4c0-0.2,0.2-0.4,0.4-0.4h0.2c0.2,0,0.4,0.2,0.4,0.4
					C65.5,27.3,65.3,27.5,65.1,27.5z"/>
			</g>
			<g>
				<path class="st0" d="M60.9,29.2c-0.1,0-0.2,0-0.3-0.1c-0.2-0.2-0.2-0.4,0-0.6l0.1-0.1c0.2-0.2,0.4-0.2,0.6,0
					c0.2,0.2,0.2,0.4,0,0.6l-0.1,0.1C61.2,29.2,61,29.2,60.9,29.2z"/>
			</g>
			<g>
				<path class="st0" d="M64.3,25.9c-0.1,0-0.2,0-0.3-0.1c-0.2-0.2-0.2-0.4,0-0.6l0.1-0.1c0.2-0.2,0.4-0.2,0.6,0
					c0.2,0.2,0.2,0.4,0,0.6l-0.1,0.1C64.5,25.9,64.4,25.9,64.3,25.9z"/>
			</g>
		</g>
		<path class="st0" d="M234.2,58.2h-0.1c-0.4,0-0.8-0.4-0.8-0.8v-0.1c0-0.4,0.4-0.8,0.8-0.8h0.1c0.4,0,0.8,0.4,0.8,0.8v0.1
			C235,57.9,234.7,58.2,234.2,58.2z M237.4,59.8v-0.1c0-0.4-0.4-0.8-0.8-0.8h-0.1c-0.4,0-0.8,0.4-0.8,0.8v0.1c0,0.4,0.4,0.8,0.8,0.8
			h0.1C237,60.6,237.4,60.3,237.4,59.8z M236.5,58.2h0.1c0.4,0,0.8-0.4,0.8-0.8v-0.1c0-0.4-0.4-0.8-0.8-0.8h-0.1
			c-0.4,0-0.8,0.4-0.8,0.8v0.1C235.7,57.9,236.1,58.2,236.5,58.2z M234.1,60.6L234.1,60.6c0.5,0,0.9-0.4,0.9-0.8v-0.1
			c0-0.4-0.4-0.8-0.8-0.8h-0.1c-0.4,0-0.8,0.4-0.8,0.8v0.1C233.3,60.2,233.7,60.6,234.1,60.6z"/>
		<g>
			<path class="st0" d="M223.3,58.9c0-0.1,0-0.2,0-0.3c0-0.1,0-0.2,0-0.3l0.4-0.3c0.1-0.1,0.1-0.2,0-0.3l-0.3-0.5
				c-0.1-0.1-0.2-0.1-0.3-0.1l-0.5,0.1c-0.1-0.1-0.3-0.2-0.5-0.3l-0.1-0.5c0-0.1-0.1-0.2-0.2-0.2h-0.5c-0.1,0-0.2,0.1-0.2,0.2
				l-0.1,0.5c-0.2,0.1-0.4,0.2-0.5,0.3l-0.5-0.1c-0.1,0-0.2,0-0.3,0.1l-0.3,0.5c-0.1,0.1,0,0.2,0,0.3l0.4,0.3c0,0.1,0,0.2,0,0.3
				c0,0.1,0,0.2,0,0.3l-0.4,0.3c-0.1,0.1-0.1,0.2,0,0.3l0.3,0.5c0,0.1,0.1,0.1,0.2,0.1c0,0,0,0,0.1,0l0.5-0.1
				c0.1,0.1,0.3,0.2,0.5,0.3l0.1,0.5c0,0.1,0.1,0.2,0.2,0.2h0.5c0.1,0,0.2-0.1,0.2-0.2l0.1-0.5c0.2-0.1,0.4-0.2,0.5-0.3l0.5,0.1
				c0,0,0,0,0.1,0c0.1,0,0.2,0,0.2-0.1l0.3-0.5c0.1-0.1,0-0.2,0-0.3L223.3,58.9z M221.5,59.4c-0.4,0-0.8-0.3-0.8-0.8
				c0-0.4,0.3-0.8,0.8-0.8c0.4,0,0.8,0.3,0.8,0.8C222.3,59.1,222,59.4,221.5,59.4z"/>
		</g>
		<g>
			<path class="st0" d="M226,56l-0.2,0c0-0.1,0-0.1-0.1-0.2l0.1-0.1c0,0,0-0.1,0-0.1l-0.2-0.2c0,0-0.1,0-0.1,0l-0.2,0.1
				c-0.1,0-0.1-0.1-0.2-0.1l0-0.2c0,0,0-0.1-0.1-0.1h-0.3c0,0-0.1,0-0.1,0.1l0,0.2c-0.1,0-0.1,0-0.2,0.1l-0.1-0.1c0,0-0.1,0-0.1,0
				l-0.2,0.2c0,0,0,0.1,0,0.1l0.1,0.1c0,0.1-0.1,0.1-0.1,0.2l-0.2,0c0,0-0.1,0-0.1,0.1v0.3c0,0,0,0.1,0.1,0.1l0.2,0
				c0,0.1,0,0.1,0.1,0.2l-0.1,0.1c0,0,0,0.1,0,0.1l0.2,0.2c0,0,0,0,0.1,0c0,0,0,0,0.1,0l0.1-0.1c0.1,0,0.1,0.1,0.2,0.1l0,0.2
				c0,0,0,0.1,0.1,0.1h0.3c0,0,0.1,0,0.1-0.1l0-0.2c0.1,0,0.1,0,0.2-0.1l0.2,0.1c0,0,0,0,0,0c0,0,0,0,0.1,0l0.2-0.2c0,0,0-0.1,0-0.1
				l-0.1-0.1c0-0.1,0.1-0.1,0.1-0.2l0.2,0c0,0,0.1,0,0.1-0.1L226,56C226.1,56.1,226.1,56.1,226,56z M225.5,56.3
				c0,0.3-0.3,0.6-0.6,0.6c-0.3,0-0.6-0.3-0.6-0.6c0-0.3,0.3-0.6,0.6-0.6C225.3,55.7,225.5,55.9,225.5,56.3z"/>
		</g>
		<g>
			<path class="st0" d="M242.5,51.5c-0.6-0.9-1.8-1.2-2.7-0.6c-0.9,0.6-1.2,1.8-0.6,2.7c0.6,0.9,1.8,1.2,2.7,0.6
				C242.8,53.7,243.1,52.4,242.5,51.5z"/>
		</g>
		<g>
			<g>
				<path class="st0" d="M234.9,41.5c-0.1,0-0.3-0.1-0.3-0.3v-0.1c0-0.1,0.1-0.3,0.3-0.3c0.2,0,0.3,0.1,0.3,0.3v0.1
					C235.2,41.4,235.1,41.5,234.9,41.5z"/>
			</g>
			<g>
				<path class="st0" d="M234.9,44.7c-0.1,0-0.3-0.1-0.3-0.3v-0.1c0-0.1,0.1-0.3,0.3-0.3c0.2,0,0.3,0.1,0.3,0.3v0.1
					C235.2,44.6,235.1,44.7,234.9,44.7z"/>
			</g>
			<g>
				<path class="st0" d="M233.9,42c-0.1,0-0.1,0-0.2-0.1l-0.1-0.1c-0.1-0.1-0.1-0.3,0-0.4c0.1-0.1,0.3-0.1,0.4,0l0.1,0.1
					c0.1,0.1,0.1,0.3,0,0.4C234,41.9,233.9,42,233.9,42z"/>
			</g>
			<g>
				<path class="st0" d="M236.1,44.2c-0.1,0-0.1,0-0.2-0.1l-0.1-0.1c-0.1-0.1-0.1-0.3,0-0.4c0.1-0.1,0.3-0.1,0.4,0l0.1,0.1
					c0.1,0.1,0.1,0.3,0,0.4C236.2,44.2,236.2,44.2,236.1,44.2z"/>
			</g>
			<g>
				<path class="st0" d="M233.4,43.1h-0.1c-0.1,0-0.3-0.1-0.3-0.3c0-0.1,0.1-0.3,0.3-0.3h0.1c0.1,0,0.3,0.1,0.3,0.3
					C233.7,42.9,233.6,43.1,233.4,43.1z"/>
			</g>
			<g>
				<path class="st0" d="M236.6,43.1h-0.1c-0.1,0-0.3-0.1-0.3-0.3c0-0.1,0.1-0.3,0.3-0.3h0.1c0.2,0,0.3,0.1,0.3,0.3
					C236.9,42.9,236.7,43.1,236.6,43.1z"/>
			</g>
			<g>
				<path class="st0" d="M233.8,44.2c-0.1,0-0.1,0-0.2-0.1c-0.1-0.1-0.1-0.3,0-0.4l0.1-0.1c0.1-0.1,0.3-0.1,0.4,0
					c0.1,0.1,0.1,0.3,0,0.4l-0.1,0.1C233.9,44.2,233.8,44.2,233.8,44.2z"/>
			</g>
			<g>
				<path class="st0" d="M236,42c-0.1,0-0.1,0-0.2-0.1c-0.1-0.1-0.1-0.3,0-0.4l0.1-0.1c0.1-0.1,0.3-0.1,0.4,0c0.1,0.1,0.1,0.3,0,0.4
					l-0.1,0.1C236.2,41.9,236.1,42,236,42z"/>
			</g>
		</g>
		<path class="st0" d="M8.6,50.1h0.1c0.4,0,0.8,0.4,0.8,0.8V51c0,0.4-0.4,0.8-0.8,0.8H8.6c-0.4,0-0.8-0.4-0.8-0.8v-0.1
			C7.8,50.5,8.1,50.1,8.6,50.1z M5.4,48.5v0.1c0,0.4,0.4,0.8,0.8,0.8h0.1c0.4,0,0.8-0.4,0.8-0.8v-0.1c0-0.4-0.4-0.8-0.8-0.8H6.2
			C5.8,47.7,5.4,48.1,5.4,48.5z M6.3,50.1L6.3,50.1c-0.5,0-0.9,0.4-0.9,0.8V51c0,0.4,0.4,0.8,0.8,0.8h0.1c0.4,0,0.8-0.4,0.8-0.8
			v-0.1C7.1,50.5,6.7,50.1,6.3,50.1z M8.7,47.7H8.6c-0.4,0-0.8,0.4-0.8,0.8v0.1c0,0.4,0.4,0.8,0.8,0.8h0.1c0.4,0,0.8-0.4,0.8-0.8
			v-0.1C9.5,48.1,9.1,47.7,8.7,47.7z"/>
		<g>
			<path class="st0" d="M19.5,49.4c0,0.1,0,0.2,0,0.3c0,0.1,0,0.2,0,0.3l-0.4,0.3c-0.1,0.1-0.1,0.2,0,0.3l0.3,0.5
				c0.1,0.1,0.2,0.1,0.3,0.1l0.5-0.1c0.1,0.1,0.3,0.2,0.5,0.3l0.1,0.5c0,0.1,0.1,0.2,0.2,0.2h0.5c0.1,0,0.2-0.1,0.2-0.2l0.1-0.5
				c0.2-0.1,0.4-0.2,0.5-0.3l0.5,0.1c0.1,0,0.2,0,0.3-0.1l0.3-0.5c0.1-0.1,0-0.2,0-0.3L23,50c0-0.1,0-0.2,0-0.3c0-0.1,0-0.2,0-0.3
				l0.4-0.3c0.1-0.1,0.1-0.2,0-0.3l-0.3-0.5c0-0.1-0.1-0.1-0.2-0.1c0,0-0.1,0-0.1,0l-0.5,0.1c-0.1-0.1-0.3-0.2-0.5-0.3l-0.1-0.5
				c0-0.1-0.1-0.2-0.2-0.2H21c-0.1,0-0.2,0.1-0.2,0.2l-0.1,0.5c-0.2,0.1-0.4,0.2-0.5,0.3l-0.5-0.1c0,0-0.1,0-0.1,0
				c-0.1,0-0.2,0-0.2,0.1l-0.3,0.5c-0.1,0.1,0,0.2,0,0.3L19.5,49.4z M21.3,48.9c0.4,0,0.8,0.3,0.8,0.8c0,0.4-0.3,0.8-0.8,0.8
				c-0.4,0-0.8-0.3-0.8-0.8C20.5,49.3,20.8,48.9,21.3,48.9z"/>
		</g>
		<g>
			<path class="st0" d="M16.8,52.3l0.2,0c0,0.1,0,0.1,0.1,0.2l-0.1,0.1c0,0,0,0.1,0,0.1l0.2,0.2c0,0,0.1,0,0.1,0l0.1-0.1
				c0.1,0,0.1,0.1,0.2,0.1l0,0.2c0,0,0,0.1,0.1,0.1H18c0,0,0.1,0,0.1-0.1l0-0.2c0.1,0,0.1,0,0.2-0.1l0.1,0.1c0,0,0.1,0,0.1,0
				l0.2-0.2c0,0,0-0.1,0-0.1l-0.1-0.1c0-0.1,0.1-0.1,0.1-0.2l0.2,0c0,0,0.1,0,0.1-0.1v-0.3c0,0,0-0.1-0.1-0.1l-0.2,0
				c0-0.1,0-0.1-0.1-0.2l0.1-0.1c0,0,0-0.1,0-0.1l-0.2-0.2c0,0,0,0-0.1,0c0,0,0,0,0,0l-0.1,0.1c-0.1,0-0.1-0.1-0.2-0.1l0-0.2
				c0,0,0-0.1-0.1-0.1h-0.3c0,0-0.1,0-0.1,0.1l0,0.2c-0.1,0-0.1,0-0.2,0.1l-0.1-0.1c0,0,0,0,0,0c0,0,0,0-0.1,0l-0.2,0.2
				c0,0,0,0.1,0,0.1l0.1,0.1c0,0.1-0.1,0.1-0.1,0.2l-0.2,0c0,0-0.1,0-0.1,0.1L16.8,52.3C16.7,52.3,16.7,52.3,16.8,52.3z M17.3,52.1
				c0-0.3,0.3-0.6,0.6-0.6c0.3,0,0.6,0.3,0.6,0.6c0,0.3-0.3,0.6-0.6,0.6C17.5,52.7,17.3,52.4,17.3,52.1z"/>
		</g>
		<g>
			<path class="st0" d="M0.3,56.8c0.6,0.9,1.8,1.2,2.7,0.6c0.9-0.6,1.2-1.8,0.6-2.7c-0.6-0.9-1.8-1.2-2.7-0.6
				C0,54.7-0.3,55.9,0.3,56.8z"/>
		</g>
		<g>
			<g>
				<path class="st0" d="M7.9,66.8c0.1,0,0.3,0.1,0.3,0.3v0.1c0,0.1-0.1,0.3-0.3,0.3c-0.1,0-0.3-0.1-0.3-0.3v-0.1
					C7.6,66.9,7.7,66.8,7.9,66.8z"/>
			</g>
			<g>
				<path class="st0" d="M7.9,63.6c0.1,0,0.3,0.1,0.3,0.3V64c0,0.1-0.1,0.3-0.3,0.3c-0.1,0-0.3-0.1-0.3-0.3v-0.1
					C7.6,63.8,7.7,63.6,7.9,63.6z"/>
			</g>
			<g>
				<path class="st0" d="M8.9,66.4c0.1,0,0.1,0,0.2,0.1l0.1,0.1c0.1,0.1,0.1,0.3,0,0.4c-0.1,0.1-0.3,0.1-0.4,0l-0.1-0.1
					c-0.1-0.1-0.1-0.3,0-0.4C8.8,66.4,8.9,66.4,8.9,66.4z"/>
			</g>
			<g>
				<path class="st0" d="M6.7,64.1c0.1,0,0.1,0,0.2,0.1L7,64.3c0.1,0.1,0.1,0.3,0,0.4c-0.1,0.1-0.3,0.1-0.4,0l-0.1-0.1
					c-0.1-0.1-0.1-0.3,0-0.4C6.6,64.2,6.6,64.1,6.7,64.1z"/>
			</g>
			<g>
				<path class="st0" d="M9.4,65.3h0.1c0.1,0,0.3,0.1,0.3,0.3c0,0.1-0.1,0.3-0.3,0.3H9.4c-0.1,0-0.3-0.1-0.3-0.3
					C9.1,65.4,9.2,65.3,9.4,65.3z"/>
			</g>
			<g>
				<path class="st0" d="M6.2,65.3h0.1c0.1,0,0.3,0.1,0.3,0.3c0,0.1-0.1,0.3-0.3,0.3H6.2c-0.1,0-0.3-0.1-0.3-0.3
					C5.9,65.4,6.1,65.3,6.2,65.3z"/>
			</g>
			<g>
				<path class="st0" d="M9,64.1c0.1,0,0.1,0,0.2,0.1c0.1,0.1,0.1,0.3,0,0.4l-0.1,0.1c-0.1,0.1-0.3,0.1-0.4,0
					c-0.1-0.1-0.1-0.3,0-0.4l0.1-0.1C8.9,64.2,9,64.1,9,64.1z"/>
			</g>
			<g>
				<path class="st0" d="M6.8,66.4c0.1,0,0.1,0,0.2,0.1c0.1,0.1,0.1,0.3,0,0.4l-0.1,0.1c-0.1,0.1-0.3,0.1-0.4,0
					c-0.1-0.1-0.1-0.3,0-0.4l0.1-0.1C6.6,66.4,6.7,66.4,6.8,66.4z"/>
			</g>
		</g>
	</g>
	<g>
		<g>
			<g class="st1">
				<linearGradient id="SVGID_1_" gradientUnits="userSpaceOnUse" x1="74.7043" y1="53.3334" x2="158.0734" y2="53.3334">
					<stop  offset="4.505620e-03" style="stop-color:#A1F9FF"/>
					<stop  offset="0.999" style="stop-color:#00EEFF"/>
				</linearGradient>
				<path class="st2" d="M121.1,1.3l-42,11.6c-9,36.5-5.4,75.2,21.1,92.4c33.2-15.9,52.2-54.2,57.8-90.7L121.1,1.3z"/>
				
					<linearGradient id="SVGID_00000032647881133739005980000005921519849162842793_" gradientUnits="userSpaceOnUse" x1="148.95" y1="17.7883" x2="118.0854" y2="111.2395">
					<stop  offset="3.017530e-03" style="stop-color:#0079A4"/>
					<stop  offset="0.999" style="stop-color:#00EEFF"/>
				</linearGradient>
				<path style="fill:url(#SVGID_00000032647881133739005980000005921519849162842793_);" d="M161.4,39.8c0.1-0.3,0.2-0.6,0.2-0.9
					c0.2-0.8,0.4-1.5,0.6-2.3c0.1-0.3,0.2-0.7,0.3-1.1c0.1-0.3,0.2-0.6,0.2-0.9c0.1-0.3,0.1-0.6,0.2-0.9c0.2-0.8,0.4-1.5,0.6-2.3
					c0.1-0.5,0.2-1,0.3-1.5c0.2-0.8,0.3-1.5,0.5-2.3c0.1-0.5,0.2-0.9,0.3-1.4c0.2-0.8,0.3-1.7,0.5-2.5c0.1-0.4,0.2-0.8,0.2-1.2
					c0.2-1.2,0.4-2.5,0.6-3.7l-7.9-4.3c-0.2,1.2-0.4,2.5-0.6,3.7c-0.1,0.4-0.2,0.8-0.2,1.2c-0.2,0.8-0.3,1.7-0.5,2.5
					c-0.1,0.5-0.2,1-0.3,1.4c-0.2,0.8-0.3,1.5-0.5,2.3c-0.1,0.5-0.2,1-0.3,1.5c-0.2,0.7-0.4,1.5-0.6,2.2c-0.1,0.6-0.3,1.2-0.4,1.7
					c-0.1,0.4-0.2,0.7-0.3,1.1c-0.2,0.8-0.4,1.5-0.6,2.3c-0.1,0.3-0.2,0.6-0.2,0.9c-0.3,1-0.6,2.1-0.9,3.1c-0.1,0.2-0.1,0.4-0.2,0.5
					c-0.3,0.8-0.5,1.6-0.8,2.4c-0.4,1.1-0.8,2.3-1.2,3.4c-0.1,0.1-0.1,0.3-0.1,0.4c-0.5,1.3-1,2.5-1.5,3.8c-0.2,0.5-0.4,1-0.6,1.4
					c-0.3,0.6-0.5,1.3-0.8,1.9c-0.2,0.5-0.4,1-0.7,1.5c-0.3,0.6-0.6,1.2-0.8,1.8c-0.3,0.6-0.5,1.1-0.8,1.7c-0.2,0.4-0.4,0.9-0.6,1.3
					c-0.3,0.6-0.6,1.2-0.9,1.8c-0.2,0.4-0.4,0.9-0.7,1.3c-0.4,0.8-0.9,1.7-1.3,2.5c-0.1,0.1-0.1,0.3-0.2,0.4c-0.5,1-1.1,1.9-1.6,2.8
					c-0.1,0.2-0.3,0.5-0.4,0.7c-0.4,0.7-0.8,1.4-1.3,2.1c-0.2,0.3-0.4,0.6-0.6,0.9c-0.4,0.7-0.9,1.3-1.3,2c-0.1,0.2-0.3,0.4-0.4,0.6
					c-0.6,0.8-1.2,1.7-1.7,2.5c-0.8,1.2-1.7,2.3-2.6,3.5c-0.2,0.3-0.5,0.6-0.7,0.9c-0.7,0.9-1.4,1.7-2.1,2.5
					c-0.3,0.4-0.6,0.7-0.9,1.1c-0.2,0.2-0.4,0.4-0.5,0.6c-0.6,0.7-1.2,1.4-1.9,2c-0.1,0.1-0.2,0.2-0.2,0.3c-0.7,0.7-1.4,1.5-2.1,2.2
					c-0.2,0.2-0.4,0.4-0.6,0.6c-0.6,0.6-1.2,1.1-1.8,1.7c-0.2,0.2-0.4,0.3-0.5,0.5c-0.7,0.7-1.5,1.3-2.3,2c-0.2,0.2-0.4,0.3-0.6,0.5
					c-0.6,0.5-1.2,1-1.8,1.5c-0.3,0.2-0.5,0.4-0.8,0.6c-0.5,0.4-1.1,0.8-1.6,1.2c-0.3,0.3-0.7,0.5-1,0.8c-0.6,0.4-1.1,0.8-1.7,1.2
					c-0.3,0.2-0.7,0.4-1,0.7c-0.4,0.3-0.8,0.5-1.2,0.7c-0.6,0.4-1.3,0.8-1.9,1.2c-0.4,0.3-0.9,0.5-1.3,0.7c-0.6,0.3-1.3,0.7-1.9,1
					c-0.8,0.4-1.6,0.8-2.4,1.2l7.9,4.3c0.6-0.3,1.2-0.6,1.8-0.9c0.2-0.1,0.4-0.2,0.6-0.3c0.6-0.3,1.3-0.7,1.9-1
					c0.4-0.2,0.9-0.5,1.3-0.7c0.7-0.4,1.3-0.8,1.9-1.2c0.3-0.2,0.6-0.4,0.9-0.6c0.1-0.1,0.2-0.1,0.3-0.2c0.3-0.2,0.7-0.4,1-0.7
					c0.6-0.4,1.1-0.8,1.7-1.2c0.4-0.2,0.7-0.5,1-0.8c0.3-0.2,0.6-0.4,0.9-0.7c0.2-0.2,0.5-0.4,0.7-0.6c0.3-0.2,0.5-0.4,0.8-0.6
					c0.6-0.5,1.2-1,1.8-1.5c0.2-0.2,0.4-0.3,0.6-0.5c0.1-0.1,0.1-0.1,0.2-0.2c0.7-0.6,1.4-1.2,2.1-1.8c0.2-0.2,0.4-0.3,0.5-0.5
					c0.3-0.3,0.7-0.6,1-0.9c0.2-0.2,0.5-0.5,0.7-0.7c0.2-0.2,0.4-0.4,0.6-0.6c0.7-0.7,1.4-1.4,2.1-2.1c0,0,0-0.1,0.1-0.1
					c0.1-0.1,0.2-0.2,0.2-0.2c0.6-0.7,1.2-1.3,1.9-2c0.2-0.2,0.4-0.4,0.5-0.6c0.2-0.2,0.3-0.4,0.5-0.5c0.2-0.2,0.3-0.4,0.5-0.6
					c0.7-0.8,1.4-1.7,2.1-2.5c0.2-0.2,0.3-0.4,0.5-0.6c0.1-0.1,0.2-0.2,0.2-0.3c0.9-1.1,1.8-2.3,2.6-3.5c0,0,0.1-0.1,0.1-0.1
					c0.6-0.8,1.1-1.6,1.7-2.4c0.1-0.2,0.3-0.4,0.4-0.7c0.3-0.4,0.5-0.8,0.8-1.2c0.2-0.3,0.3-0.5,0.5-0.8c0.2-0.3,0.4-0.6,0.6-0.9
					c0.4-0.7,0.8-1.4,1.3-2.1c0.1-0.2,0.3-0.5,0.4-0.7c0-0.1,0.1-0.1,0.1-0.2c0.5-0.9,1-1.7,1.5-2.6c0.1-0.1,0.1-0.3,0.2-0.4
					c0.4-0.7,0.8-1.5,1.2-2.2c0.1-0.1,0.1-0.2,0.2-0.3c0.2-0.4,0.4-0.9,0.7-1.3c0.3-0.6,0.6-1.2,0.9-1.8c0.2-0.4,0.4-0.9,0.6-1.3
					c0.2-0.4,0.4-0.8,0.6-1.2c0.1-0.2,0.1-0.3,0.2-0.5c0.3-0.6,0.6-1.2,0.8-1.8c0.2-0.5,0.4-1,0.7-1.5c0.3-0.6,0.5-1.3,0.8-1.9
					c0.2-0.4,0.3-0.8,0.5-1.1c0-0.1,0.1-0.2,0.1-0.3c0.5-1.3,1-2.5,1.5-3.8c0.1-0.1,0.1-0.3,0.1-0.4c0.4-1.1,0.8-2.3,1.2-3.4
					c0-0.1,0.1-0.3,0.1-0.4c0.2-0.7,0.4-1.3,0.7-2c0.1-0.2,0.1-0.4,0.2-0.5C160.7,41.8,161.1,40.8,161.4,39.8z"/>
				
					<linearGradient id="SVGID_00000134929306072440110180000001047362833688045473_" gradientUnits="userSpaceOnUse" x1="135.1762" y1="75.5271" x2="100.808" y2="20.041">
					<stop  offset="4.505620e-03" style="stop-color:#A1F9FF"/>
					<stop  offset="1" style="stop-color:#FFFFFF"/>
				</linearGradient>
				<path style="fill:url(#SVGID_00000134929306072440110180000001047362833688045473_);" d="M119.9,7.5L83.1,17.7
					c-3.7,16.8-4.2,32.7-1.7,46.3c2.9,15.5,9.7,27.2,20.1,34.8c13.4-7,24.7-18.3,33.8-33.6c8-13.4,13.8-29.2,16.8-46L119.9,7.5z"/>
				
					<linearGradient id="SVGID_00000103977468842977816040000017615193159063760054_" gradientUnits="userSpaceOnUse" x1="137.0063" y1="74.3346" x2="119.8222" y2="51.3534">
					<stop  offset="4.505620e-03" style="stop-color:#A1F9FF"/>
					<stop  offset="1" style="stop-color:#FFFFFF"/>
				</linearGradient>
				<path style="fill:url(#SVGID_00000103977468842977816040000017615193159063760054_);" d="M132.3,12.7
					C124.6,29,115.8,44.9,104.6,59C99,65.9,93,72.3,86.5,78.4c3.5,8.1,8.6,14.7,15.1,19.5c13.1-7,24.2-18.1,33.1-33.1
					c7.8-13.1,13.5-28.7,16.6-45.2L132.3,12.7z"/>
				<g>
					
						<linearGradient id="SVGID_00000150787198021642357800000014951203189004364965_" gradientUnits="userSpaceOnUse" x1="109.8311" y1="42.9378" x2="126.7787" y2="64.3535">
						<stop  offset="3.017530e-03" style="stop-color:#0079A4"/>
						<stop  offset="0.999" style="stop-color:#00EEFF"/>
					</linearGradient>
					<polygon style="fill:url(#SVGID_00000150787198021642357800000014951203189004364965_);" points="127.3,34.4 131.4,40.8 
						104.4,66.1 103.4,65.5 99,42 100,42.6 106.9,53.4 126.3,33.8 					"/>
				</g>
				<g>
					
						<linearGradient id="SVGID_00000124877116613870474970000011412721285692534680_" gradientUnits="userSpaceOnUse" x1="92.3947" y1="49.6063" x2="130.4245" y2="49.6063">
						<stop  offset="4.505620e-03" style="stop-color:#A1F9FF"/>
						<stop  offset="0.999" style="stop-color:#00EEFF"/>
					</linearGradient>
					<polygon style="fill:url(#SVGID_00000124877116613870474970000011412721285692534680_);" points="126.3,33.8 130.4,40.2 
						103.4,65.5 92.4,48.2 99,42 105.9,52.8 					"/>
				</g>
			</g>
		</g>
	</g>
</g>
</svg>
