<?xml version="1.0" encoding="utf-8"?>
<!-- Generator: Adobe Illustrator 26.0.0, SVG Export Plug-In . SVG Version: 6.00 Build 0)  -->
<svg version="1.1" id="Capa_1" xmlns="http://www.w3.org/2000/svg" xmlns:xlink="http://www.w3.org/1999/xlink" x="0px" y="0px"
	 viewBox="0 0 315.2 71.9" style="enable-background:new 0 0 315.2 71.9;" xml:space="preserve">
<style type="text/css">
	.st0{fill:#fff;}
</style>
<g>
	<g>
		<path class="st0" d="M61,71.9c0.4,0,0.7,0,1-0.3c0.4-0.4,0.4-0.9,0.3-1.3c-0.2-0.5-0.6-0.7-1.1-0.7c-1.5,0-2.9,0-4.4,0
			c-0.4,0-0.4-0.1-0.4-0.5c0-1.3,0-2.6,0-3.9c0-0.4,0.1-0.5,0.5-0.5c4.2,0,8.3,0,12.5,0c1.7,0,2.7-1,2.7-2.6c0-8.2,0-16.5,0-24.7
			c0-0.3,0-0.6-0.1-0.9c-0.3-1.1-1.3-1.7-2.6-1.7c-5.5,0-11,0-16.5,0s-11,0-16.5,0c-1.6,0-2.6,1-2.7,2.5c0,8.3,0,16.6,0,25
			c0,0.4,0.1,0.9,0.3,1.3c0.5,0.9,1.4,1.3,2.4,1.3c4.2,0,8.3,0,12.5,0c0.3,0,0.4,0.1,0.4,0.4c0,1.3,0,2.6,0,4c0,0.3-0.1,0.4-0.4,0.4
			c-1.5,0-3,0-4.5,0c-0.8,0-1.3,0.7-1.1,1.5c0.2,0.6,0.6,0.9,1.4,0.9c3.9,0,7.8,0,11.7,0C57.8,71.9,59.4,71.9,61,71.9z M36.4,37.2
			c5.4,0,10.9,0,16.3,0s10.9,0,16.3,0c0.4,0,0.5,0.1,0.5,0.5c0,5.7,0,11.4,0,17c0,0.4-0.1,0.5-0.5,0.5c-10.9,0-21.8,0-32.7,0
			c-0.4,0-0.4-0.1-0.4-0.5c0-5.7,0-11.4,0-17.1C36,37.3,36,37.2,36.4,37.2z M53.9,69.3c0,0.2,0,0.3-0.3,0.3c-0.6,0-1.2,0-1.9,0
			c-0.2,0-0.3-0.1-0.3-0.3c0-0.7,0-1.4,0-2.1s0-1.3,0-2c0-0.3,0-0.4,0.3-0.4c0.6,0,1.2,0,1.8,0c0.2,0,0.3,0.1,0.3,0.3
			C53.9,66.5,53.9,67.9,53.9,69.3z M52.8,62.3c-5.4,0-10.9,0-16.3,0c-0.4,0-0.5-0.1-0.5-0.5c0-1.3,0-2.6,0-3.8
			c0-0.4,0.1-0.5,0.5-0.5c9.7,0,19.4,0,29.1,0c1.2,0,2.4,0,3.6,0c0.3,0,0.4,0.1,0.4,0.4c0,1.3,0,2.6,0,4c0,0.4-0.1,0.5-0.5,0.5
			c-4.5,0-9,0-13.6,0C54.6,62.3,53.7,62.3,52.8,62.3z"/>
		<path class="st0" d="M12.5,9.2c1.1-0.9,2.2-1.7,3.4-2.5C18.7,5,21.8,3.8,25,3.1c0.7-0.2,1.5-0.3,2.3-0.4C27.2,2.9,27,3,26.9,3.1
			c-1.4,1.2-2.6,2.5-3.8,3.9c-2.5,3-4.6,6.2-6.1,9.9c-1.2,3-2,6-2.4,9.2c-0.1,0.7,0.3,1.3,1,1.5c0.6,0.1,1.2-0.3,1.4-1
			c0.1-0.3,0.1-0.6,0.2-1c0.5-3.2,1.3-6.2,2.7-9.1C22.4,11,26.3,6.6,31,2.9c0.2-0.1,0.2-0.1,0.4,0c1.2,1,2.4,2,3.5,3.1
			c0.9,0.8,1.7,1.7,2.4,2.7c0.5,0.6,1.3,0.7,1.7,0.2c0.6-0.5,0.6-1.2,0-1.8c-1.2-1.4-2.5-2.6-3.9-3.9c0-0.1-0.1-0.2-0.2-0.3L35,2.8
			c7,1,12.8,4.1,17.6,9.4c-0.2,0-0.4,0-0.5,0c-1.6,0-3.2,0-4.8,0c-0.6,0-1,0.3-1.2,0.9c-0.2,0.9,0.3,1.5,1.3,1.5c2.4,0,4.8,0,7.3,0
			c1.3,0,1.2-0.1,1.5-1c0.2-0.6,0.2-1.1-0.2-1.6s-0.9-1.1-1.4-1.6c-2.7-3-5.8-5.4-9.4-7.1c-5.6-2.7-11.6-3.7-17.8-3
			C23.3,0.7,19.6,2,16,3.9c-1.8,1-3.4,2.2-5,3.5c-0.6,0.5-0.7,1.2-0.3,1.7C11.2,9.6,11.9,9.7,12.5,9.2z"/>
		<path class="st0" d="M46.6,32.4c1,0,1.4-0.4,1.4-1.4c0-1.7-0.1-3.5-0.3-5.2c-0.6-4.6-2-8.9-4.3-12.9C43,12.2,42.5,12,41.8,12
			c-5.1,0-10.2,0-15.3,0c-0.2,0-0.4,0-0.5,0c-0.6,0.1-1,0.6-0.9,1.2c0,0.7,0.4,1.1,1.1,1.1c0.2,0,0.4,0,0.5,0c4.8,0,9.7,0,14.5,0
			c0.3,0,0.4,0,0.5,0.3c2.5,4.6,3.7,9.5,3.9,14.7c0,0.6,0,0.6-0.6,0.6c-8.1,0-16.1,0-24.2,0c-0.3,0-0.5,0-0.8,0.1
			c-0.5,0.2-0.8,0.6-0.8,1.2s0.3,1,0.9,1.1c0.2,0,0.4,0,0.7,0c4.3,0,8.6,0,12.9,0C37.9,32.4,42.2,32.4,46.6,32.4z"/>
		<path class="st0" d="M30.6,59.3c-2-1.6-3.7-3.3-5.4-5.2c-1.5-1.8-2.9-3.7-4.1-5.6c-0.2-0.4-0.6-0.5-1-0.5c-2.1,0-4.3,0-6.4,0
			s-4.3,0-6.4,0c-0.6,0-1,0.2-1.2,0.7S6,49.6,6.3,50c1.4,1.8,3,3.5,4.7,5c4.2,3.6,9,5.9,14.5,6.8c1.4,0.3,2.9,0.4,4.3,0.5
			c0.9,0,1.5-0.6,1.3-1.5c0-0.1-0.1-0.2,0-0.3C31.3,60,31.1,59.6,30.6,59.3z M9.8,50.4c0.1-0.1,0.2-0.1,0.3-0.1c3,0,6.1,0,9.1,0
			c0.2,0,0.4,0,0.5,0.3c2.1,3.3,4.6,6.3,7.6,8.8c0.1,0,0.1,0.1,0.1,0.1s0,0,0,0.1C20.4,58.7,14.5,55.7,9.8,50.4z"/>
		<path class="st0" d="M3.8,46.1c0.3,0.6,1.1,0.8,1.7,0.5c0.5-0.2,0.7-1,0.4-1.6c-0.3-0.6-0.6-1.1-0.8-1.7C3.6,40,2.7,36.4,2.4,32.8
			c0-0.3,0-0.4,0.4-0.4c3.7,0,7.5,0,11.2,0c0.3,0,0.4,0.1,0.4,0.4c0.1,1.7,0.2,3.5,0.5,5.2c0.4,2.3,1,4.6,1.8,6.8
			c0.2,0.5,0.5,0.8,1,0.9c0.5,0.1,0.8-0.1,1.1-0.5c0.3-0.4,0.3-0.8,0.1-1.2c-1-2.6-1.6-5.3-2-8.1c-0.2-1.5-0.2-3.1-0.3-4.6
			c0-0.7-0.4-1.1-1-1.2c-0.2,0-0.4,0-0.6,0c-2.3,0-4.6,0-6.8,0c-2.3,0-4.6,0-7,0C0.4,30,0,30.4,0,31.3c0,1.5,0.1,2.9,0.3,4.4
			C0.9,39.4,2,42.9,3.8,46.1z"/>
		<path class="st0" d="M59.9,29.6c0,0.3,0,0.4-0.4,0.4c-1.9,0-3.8,0-5.7,0c-0.7,0-1.5,0-2.2,0c-0.6,0-1,0.3-1.2,0.8
			c-0.3,0.9,0.2,1.6,1.2,1.6c1.6,0,3.2,0,4.8,0s3.2,0,4.8,0c0.8,0,1.2-0.4,1.2-1.2c0-1.3,0-2.6-0.2-3.9c-0.3-2.4-0.9-4.7-1.7-6.9
			c-0.5-1.4-1.2-2.8-1.9-4.1c-0.3-0.5-0.8-0.8-1.3-0.7c-0.8,0.2-1.1,1.1-0.7,1.8C58.5,21.2,59.8,25.2,59.9,29.6z"/>
		<path class="st0" d="M2.2,26.2C2.8,26,2.9,25.5,3,25.1c0.8-3.8,2.3-7.3,4.5-10.5c0.1-0.2,0.3-0.3,0.6-0.3c1.2,0,2.4,0,3.7,0
			c1.2,0,2.4,0,3.6,0c0.4,0,0.7,0,1-0.3s0.5-0.9,0.3-1.4s-0.6-0.7-1.1-0.7c-2.9,0-5.7,0-8.6,0c-0.4,0-0.8,0.2-1.1,0.6
			C4.7,14.2,3.6,16,2.7,18c-1,2.1-1.7,4.3-2.2,6.6c-0.1,0.5,0.1,1,0.5,1.4C1.3,26.3,1.8,26.3,2.2,26.2z"/>
		<path class="st0" d="M29.9,48c-1.7,0-3.3,0-5,0c-0.8,0-1.2,0.5-1.2,1.2s0.4,1.2,1.2,1.2c0.8,0,1.7,0,2.5,0s1.6,0,2.4,0
			s1.3-0.5,1.3-1.2C31.2,48.4,30.7,48,29.9,48z"/>
		<path class="st0" d="M52.8,58.8c-0.6,0-1.2,0.5-1.2,1.1c0,0.7,0.5,1.2,1.1,1.3c0.7,0,1.2-0.5,1.2-1.2C54,59.3,53.4,58.8,52.8,58.8
			z"/>
	</g>
	<g>
		<path class="st0" d="M95.9,23.4c0.2,0.5,0.7,0.7,1.2,0.8c0.9,0.2,1.7,0.1,2.6,0.1c0.8,0,1.6,0,2.4,0c0.7,0,0.9,0.2,0.9,0.9
			c0,0.3,0,0.6,0,0.9c0,7.5,0,15,0,22.5c0,0.3,0,0.7,0,1c0.1,0.9,0.7,1.5,1.5,1.5s1.4-0.5,1.6-1.3c0.1-0.5,0.2-1,0.2-1.5
			c0-7.5,0-15,0-22.4c0-0.2,0-0.5,0-0.7c0-0.9,0.1-1,1-1c1.2,0,2.4,0,3.6,0c0.5,0,0.9-0.1,1.4-0.1c0.7-0.1,1.2-0.7,1.1-1.5
			s-0.5-1.3-1.3-1.3c-0.2,0-0.5,0-0.7,0c-4.6,0-9.1,0-13.7,0c-0.9,0-1.6,0.1-2,1c0,0.1-0.2,0.2-0.3,0.2c0,0.2,0,0.4,0,0.5
			C95.7,23,95.8,23.2,95.9,23.4z"/>
		<path class="st0" d="M97.8,24.5c1.4,0,2.8,0,4.2,0c0.7,0,0.7,0,0.7,0.7c0,7.8,0,15.5,0,23.3c0,0.4,0,0.8,0.1,1.3
			c0.1,0.9,0.8,1.6,1.6,1.6c1.1,0.1,1.8-0.4,2-1.4c0.1-0.5,0.1-1,0.1-1.5c0-7.8,0-15.6,0-23.5c0-0.5,0.1-0.6,0.6-0.6
			c1.7,0,3.3,0.1,5-0.1c1.3-0.1,2-1.4,1.3-2.6c-0.4-0.8-1.2-0.8-1.9-0.8c-4.7,0-9.3,0-14,0c-1.4,0-1.7,0.2-2.2,1.4
			c0.2,0,0.3,0,0.3-0.2c0.4-0.9,1.1-1,2-1c4.6,0,9.1,0,13.7,0c0.2,0,0.5,0,0.7,0c0.8,0.1,1.2,0.6,1.3,1.3c0.1,0.8-0.4,1.4-1.1,1.5
			c-0.4,0.1-0.9,0.1-1.4,0.1c-1.2,0-2.4,0-3.6,0c-0.9,0-1,0.1-1,1c0,0.2,0,0.5,0,0.7c0,7.5,0,15,0,22.4c0,0.5,0,1-0.2,1.5
			c-0.2,0.8-0.8,1.3-1.6,1.3c-0.8,0-1.5-0.6-1.5-1.5c0-0.3,0-0.7,0-1c0-7.5,0-15,0-22.5c0-0.3,0-0.6,0-0.9c0-0.7-0.2-0.9-0.9-0.9
			c-0.8,0-1.6,0-2.4,0c-0.9,0-1.7,0.1-2.6-0.1c-0.5-0.1-0.9-0.3-1.2-0.8c-0.1-0.2-0.1-0.4-0.4-0.4C95.7,24.3,96.7,24.5,97.8,24.5z"
			/>
		<path class="st0" d="M274.4,46.1c-0.4-2.1-0.9-4.3-1.7-6.3c-0.3-0.7-0.6-1.4-1.1-1.9c-0.7-0.7-1.6-1.2-2.6-1.5
			c-0.1,0-0.3-0.1-0.3-0.2c0-0.2,0.2-0.1,0.3-0.2c0.6-0.1,1.3-0.4,1.9-0.7c1.5-0.7,2.7-1.7,3.4-3.2c1-2.1,0.9-4.3,0.3-6.4
			c-0.5-1.8-1.7-3-3.3-3.8c-1.1-0.6-2.3-0.8-3.5-0.9c-2.3-0.2-4.5-0.1-6.8-0.1c-0.2,0-0.4,0-0.5,0.1c-1.3,0.4-2.5,1.6-2.4,3.3
			c0,4.1,0,8.2,0,12.3c0,3.9,0,7.9,0,11.8c0,0.4,0,0.8,0,1.2c0.1,1,0.7,1.6,1.7,1.6c1,0.1,1.6-0.5,1.9-1.4c0.1-0.4,0.1-0.8,0.1-1.3
			c0-3.5,0-7.1,0-10.6c0-0.4,0.1-0.6,0.5-0.5c1,0,1.9-0.1,2.9,0c1.8,0.2,3.3,0.9,4.1,2.6c0.8,1.7,1.1,3.5,1.4,5.4
			c0.2,1.4,0.3,2.9,0.8,4.3c0.4,1.2,1.3,1.6,2.6,1.3c1-0.2,1.4-0.9,1.2-2.2C274.8,48.2,274.6,47.2,274.4,46.1z M266.8,34
			c-1.6,0.3-3.2,0.2-4.8,0.2c-0.4,0-0.4-0.2-0.4-0.5c0-1.3,0-2.6,0-3.8c0-1.2,0-2.4,0-3.6c0-1.3,0.5-1.9,1.8-1.9
			c1.5,0,3-0.1,4.5,0.3c1.8,0.4,3,1.7,3.2,3.5c0.1,1.2,0,2.3-0.5,3.4C269.8,33.1,268.4,33.7,266.8,34z"/>
		<path class="st0" d="M173.6,21.9c-0.2-0.9-0.7-1.4-1.6-1.5c-1.1,0-1.6,0.3-1.9,1.3c-0.1,0.3-0.1,0.6-0.1,0.9c0,3.5,0,7,0,10.5
			c0,0.5-0.2,0.6-0.7,0.6c-2.7,0-5.5,0-8.2,0c-0.5,0-0.7-0.1-0.7-0.7c0-3.4,0-6.9,0-10.3c0-0.4,0-0.8-0.2-1.2
			c-0.2-0.8-0.8-1.1-1.7-1.1s-1.4,0.4-1.7,1.1c-0.2,0.5-0.2,1-0.2,1.5c0,8.5,0,17.1,0,25.6c0,0.4,0,0.8,0.1,1.2
			c0.1,0.9,0.7,1.4,1.7,1.5c0.9,0.1,1.6-0.4,1.8-1.3c0.1-0.4,0.1-0.8,0.1-1.2c0-3.7,0-7.4,0-11c0-0.5,0.1-0.6,0.6-0.6
			c2.8,0,5.6,0,8.4,0c0.5,0,0.7,0.1,0.6,0.6c0,3.7,0,7.5,0,11.2c0,0.3,0,0.6,0.1,0.9c0.3,0.9,0.9,1.4,1.8,1.3c0.9,0,1.6-0.6,1.7-1.5
			c0.1-0.4,0.1-0.8,0.1-1.2c0-4.2,0-8.5,0-12.7c0-4.3,0-8.6,0-12.9C173.7,22.8,173.7,22.3,173.6,21.9z"/>
		<path class="st0" d="M293.7,25.5c-1.3-3-3.3-5-6.8-5c-2.8-0.1-5,1-6.6,3.4c-0.8,1.2-1.3,2.5-1.6,3.8c-0.7,2.7-0.9,5.5-0.9,8.7
			c0,0.9,0,2.2,0.1,3.5c0.2,2.6,0.7,5.1,1.9,7.5c1.8,3.6,5.4,4.8,9.1,3.7c2.1-0.6,3.5-2.1,4.4-4c1-2,1.4-4.2,1.7-6.4
			c0.3-2.9,0.3-5.8,0.1-8.7C295,29.8,294.6,27.6,293.7,25.5z M291.5,36c-0.1,2.8-0.2,5.5-1,8.2c-0.3,1.1-0.7,2.3-1.7,3
			c-1.8,1.2-4.6,1-5.7-1.5c-0.6-1.3-0.9-2.7-1.1-4.1c-0.4-2.8-0.5-5.6-0.3-8.4c0.1-2.1,0.3-4.2,1.1-6.2c0.5-1.3,1.3-2.5,2.7-2.9
			c1.7-0.5,3.3,0.2,4.2,1.7c0.8,1.3,1.1,2.7,1.4,4.1c0.1,0.5,0.2,1,0.2,1.6C291.4,33,291.5,34.5,291.5,36z"/>
		<path class="st0" d="M223.1,25.7c1.2-1.5,3.4-2.1,5.1-1.5c1.2,0.4,1.9,1.4,2.3,2.5c0.2,0.6,0.3,1.3,0.8,1.8c0.5,0.7,1.7,1,2.4,0.7
			c0.6-0.3,1-1,0.9-1.7c-0.2-2-1.1-3.8-2.5-5.2c-1.4-1.4-3.1-1.8-5-1.9c-3.4-0.1-6,1.3-7.6,4.2c-0.9,1.6-1.5,3.3-1.8,5
			c-0.6,2.7-0.7,5.3-0.5,8c0.1,2.9,0.5,5.8,1.7,8.5c0.7,1.6,1.7,3,3.2,3.9c2.9,1.7,5.9,1.7,8.9,0.2c2.1-1.1,3.3-2.8,3.6-5.3
			c0.1-1.3,0.1-2.5,0.1-4.1c0-1,0.1-2.4-0.1-3.7c-0.2-1.2-0.9-2.1-2.1-2.3c-1.7-0.3-3.5-0.2-5.2-0.1c-0.9,0.1-1.4,0.8-1.3,1.7
			c0,1,0.4,1.4,1.4,1.5c0.7,0.1,1.5,0.1,2.2,0.1c1.1,0,1.4,0.3,1.4,1.4c0,1.3,0,2.5,0,3.8c0,0.6,0,1.2-0.2,1.7
			c-0.3,1.3-1.1,2.3-2.5,2.6c-2.6,0.6-4.6-0.3-5.7-2.7c-0.9-1.8-1.2-3.6-1.4-5.6c-0.3-3.1-0.3-6.1,0.2-9.2
			C221.6,28.7,222,27.1,223.1,25.7z"/>
		<path class="st0" d="M254.5,22c-0.2-1-0.7-1.5-1.7-1.5S251.2,21,251,22c-0.1,0.3-0.1,0.6-0.1,0.9c0,6.3,0,12.6,0,18.9
			c0,0.9,0,1.8-0.2,2.6c-0.2,0.9-0.5,1.7-1.2,2.3c-1.4,1.2-3.1,1.4-4.8,0.9c-1.8-0.4-2.7-1.7-3-3.4c-0.2-0.9-0.2-1.7-0.2-2.6
			c0-6.1,0-12.1,0-18.2c0-0.4,0-0.8,0-1.2c-0.1-1.1-0.6-1.7-1.5-1.8c-1.2-0.2-2,0.4-2.2,1.6c0,0.3-0.1,0.6-0.1,0.9
			c0,3.4,0,6.8,0,10.2c0,3,0,6,0,9c0,1.4,0.1,2.7,0.5,4c0.6,2.2,1.9,3.8,4.1,4.6c2,0.8,4.1,0.8,6.1,0.5c2.7-0.4,4.6-1.8,5.6-4.4
			c0.6-1.5,0.7-3,0.7-4.5c0-6.5,0-13,0-19.6C254.6,22.5,254.5,22.2,254.5,22z"/>
		<path class="st0" d="M189.4,34.9c-1.5-0.9-3.2-1.5-4.8-2.3c-1-0.5-2-1-2.8-1.8c-1.6-1.7-1.4-4.9,0.5-6.2c1.2-0.8,2.5-0.8,3.8-0.6
			c1.3,0.2,2.3,0.9,2.9,2.1c0.3,0.6,0.5,1.3,0.8,1.9c0.5,1.1,1.5,1.7,2.5,1.5c1.1-0.3,1.4-1,1.3-2.4c-0.2-2.1-1.3-3.6-2.9-4.9
			c-1.6-1.3-3.4-1.7-5.6-1.7c-0.5,0-1.3,0-2.1,0.3c-3,0.8-5.1,2.5-5.7,5.7c-0.4,2-0.2,3.9,0.9,5.7c0.9,1.4,2.1,2.4,3.5,3.1
			c1.8,0.9,3.6,1.7,5.3,2.6c2.7,1.4,3.8,3.5,3.3,6.3c-0.2,1.4-1,2.6-2.2,3.3c-2.8,1.6-6.2,0-7-3.1c-0.2-0.7-0.3-1.5-0.6-2.2
			c-0.4-0.8-1.3-1.2-2.3-1c-0.8,0.2-1.3,0.8-1.4,1.8c-0.1,1.5,0.5,2.8,1.1,4c0.9,1.7,2.1,2.9,3.9,3.7c1.5,0.6,3,0.8,4.6,0.8
			s3.2-0.5,4.5-1.4c3.2-2.2,4-6.7,2.9-10.2C193,37.6,191.4,36,189.4,34.9z"/>
		<path class="st0" d="M213.1,47.4c-0.4,0-0.8,0-1.2,0c-3.1,0-6.1,0-9.2,0c-1.4,0-1.9-0.5-1.9-1.9c0-2.5,0-5.1,0-7.6
			c0-0.5,0.1-0.6,0.6-0.6c2.8,0,5.5,0,8.3,0c0.3,0,0.6,0,0.9,0c1.1-0.1,1.7-0.7,1.7-1.7c0-1.1-0.5-1.6-1.6-1.8
			c-0.4,0-0.8-0.1-1.1-0.1c-2.7,0-5.5,0-8.2,0c-0.4,0-0.5-0.1-0.5-0.5c0-2.3,0-4.6,0-6.9c0-1.4,0.5-1.9,1.9-1.9c0.2,0,0.4,0,0.5,0
			c2.9,0,5.8,0,8.7,0c0.5,0,0.9,0,1.4-0.1c0.9-0.2,1.3-0.8,1.2-1.7c-0.1-0.9-0.5-1.4-1.4-1.5c-0.3,0-0.6-0.1-0.9-0.1c-2,0-4,0-5.9,0
			c-2,0-4,0-6,0c-1.9,0-3.2,1.3-3.2,3.2c0,7.8,0,15.6,0,23.4c0,0.3,0,0.6,0.1,0.9c0.4,1.5,1.7,2.3,3.4,2.3c3.8,0,7.7,0,11.5,0
			c0.4,0,0.8,0,1.3-0.2c0.9-0.2,1.3-0.9,1.2-1.8C214.6,48,214,47.5,213.1,47.4z"/>
		<path class="st0" d="M132.1,47.4c-1.6,0-3.3,0-4.9,0c-1.8,0-3.6,0-5.4,0c-1.3,0-1.8-0.5-1.8-1.8c0-0.1,0-0.3,0-0.4
			c0-2.4,0-4.8,0-7.2c0-0.5,0.1-0.7,0.6-0.6c2.8,0,5.6,0,8.5,0c0.5,0,1,0,1.5-0.2c0.7-0.3,1-0.9,0.9-1.8c-0.1-0.7-0.5-1.2-1.2-1.3
			c-0.4-0.1-0.9-0.1-1.3-0.1c-2.8,0-5.6,0-8.4,0c-0.3,0-0.5,0-0.5-0.4c0-2.4,0-4.8,0-7.2c0-1.2,0.5-1.6,1.7-1.7c0.2,0,0.4,0,0.6,0
			c3,0,5.9,0,8.9,0c0.5,0,0.9,0,1.4-0.1c0.9-0.3,1.4-1,1.2-1.9c-0.2-1-0.7-1.4-2-1.4c-4.2,0-8.3,0-12.5,0c-0.2,0-0.5,0-0.7,0.1
			c-1.5,0.5-2.3,1.6-2.3,3.1c0,3.9,0,7.8,0,11.7c0,3.8,0,7.6,0,11.4c0,0.4,0,0.8,0.1,1.3c0.4,1.5,1.7,2.3,3.3,2.3
			c3.9,0,7.7,0,11.6,0c0.4,0,0.7,0,1.1-0.1c1-0.2,1.4-0.9,1.4-1.8C133.7,48,133.2,47.5,132.1,47.4z"/>
		<path class="st0" d="M152.6,41.2c-1.1-0.3-2,0.2-2.4,1.2c-0.5,1.1-0.8,2.3-1.4,3.4c-1.7,2.9-5.2,2.5-6.7,0.2
			c-1.1-1.8-1.5-3.8-1.7-5.9c-0.3-3-0.2-6,0.1-9c0.2-1.5,0.5-3,1.3-4.4c0.7-1.4,1.7-2.4,3.4-2.6c1.9-0.3,3.5,0.9,4.2,3
			c0.2,0.7,0.3,1.5,0.7,2.1c0.5,0.7,1.2,1,2.2,0.8c0.8-0.2,1.2-0.8,1.1-1.7c0-1.2-0.3-2.4-0.9-3.5c-1.4-2.6-3.3-4.2-6.4-4.2
			c-1.8,0-3.6,0.3-5.1,1.4c-1.7,1.2-2.7,2.9-3.3,4.8c-1.1,3-1.3,6.2-1.3,8.7c0,4.2,0.4,7.2,1.2,9.6c0.6,1.9,1.6,3.6,3.2,4.9
			c1.8,1.5,4,1.7,6.2,1.5c1.1-0.1,2.1-0.4,3-1c2.5-1.8,3.6-4.3,4-7.2C153.9,42.1,153.4,41.5,152.6,41.2z"/>
		<g>
			<path class="st0" d="M315,45c0.2-1.6,0.1-3.2-0.1-4.4v-0.1c-0.6-2.6-2.3-4.3-4.6-5.5c-1.7-0.9-3.4-1.6-5.1-2.4
				c-1.1-0.5-2.1-1.2-2.8-2.2c-1.1-1.7-0.9-4.3,0.5-5.6c0.5-0.4,1-0.7,1.6-0.9c0.9-0.2,1.8-0.3,2.7-0.1c1.8,0.3,2.9,1.4,3.6,3.1
				c0.2,0.6,0.4,1.2,0.8,1.7s1,0.8,1.6,0.7c0.9-0.1,1.3-0.8,1.3-1.8c-0.1-2.9-2.8-5.5-5.1-6.2c-2-0.6-4.1-0.7-6.1,0
				c-2.7,1-4.8,3.1-4.9,6.5c0,1.1,0,2.1,0.4,3.1c0.6,1.7,1.8,2.9,3.3,3.8s3,1.5,4.5,2.2c1.3,0.6,2.6,1.3,3.6,2.3
				c1.2,1.3,1.7,2.8,1.5,4.5c-0.1,1.4-0.7,2.5-1.7,3.5c-0.5,0.5-1.1,0.8-1.7,0.9c-3,0.7-5.6-0.6-6.4-3.7c-0.2-0.6-0.2-1.3-0.5-1.9
				c-0.4-0.8-1.1-1.2-2-1.1c-0.9,0.2-1.3,0.7-1.3,1.6c0,1.5,0.5,2.8,1.2,4.1c1.3,2.4,3.3,3.5,5.9,3.9c1.3,0.2,2.6,0.2,3.8-0.1
				c3-0.7,4.8-2.6,5.6-5.5C314.9,45.3,315,45.2,315,45z"/>
		</g>
	</g>
</g>
</svg>
