<?xml version="1.0" encoding="utf-8"?>
<!-- Generator: Adobe Illustrator 26.0.0, SVG Export Plug-In . SVG Version: 6.00 Build 0)  -->
<svg version="1.1" id="Capa_1" xmlns="http://www.w3.org/2000/svg" xmlns:xlink="http://www.w3.org/1999/xlink" x="0px" y="0px"
	 viewBox="0 0 2809.2 1920.6" style="enable-background:new 0 0 2809.2 1920.6;" xml:space="preserve">
<style type="text/css">
	.st0{fill:#3E3A71;}
</style>
<g>
	<path class="st0" d="M5.5,1561.3c3.2,6.5,8.3,8.8,14.8,10.2c11.1,2.3,22.2,1.4,32.8,1.4c10.2,0,20.8,0,30.9,0
		c9.2,0.5,11.5,2.8,12,12c0,4.2,0,7.9,0,12c0,96.1,0,192.1,0,288.2c0,4.2,0,8.3,0.5,12.5c1.4,11.1,9.2,18.9,19.9,19.4
		c10.2,0.5,18-5.5,20.8-16.6c1.4-6,1.8-12.5,1.8-18.9c0-95.6,0-191.2,0-286.8c0-3.2,0-6,0-9.2c0.5-11.1,1.8-12.9,13.4-12.9
		c15.2,0,30.5,0,45.7,0c6,0,11.5-0.9,17.5-1.8c9.7-1.8,15.2-9.7,14.3-19.4c-0.9-10.2-6.5-16.2-16.2-17.1c-3.2-0.5-6,0-9.2,0
		c-58.2,0-116.8,0-175,0c-11.1,0-20.8,0.9-25.4,12.9c-0.5,1.4-1.8,2.8-4.2,2.3c0,2.3,0,4.6,0,6.9C3.7,1556.2,4.2,1559,5.5,1561.3z"
		/>
	<path class="st0" d="M29.6,1576.1c18,0,35.6,0,53.6,0c9.2,0,9.2,0,9.2,9.2c0,99.3,0,198.6,0,297.9c0,5.5,0,10.6,0.9,16.2
		c1.4,12,9.7,20.3,21.2,20.8c13.4,0.9,22.6-5.1,25.9-17.5c1.8-6,1.8-12.5,1.8-18.9c0-100.2,0-200,0-300.2c0-6,1.4-7.9,7.9-7.9
		c21.2,0,42.5,1.4,63.7-0.9c17.1-1.8,25.4-18.5,17.1-33.7c-5.5-9.7-14.8-10.2-24.5-10.2c-59.6,0-119.1,0-178.7,0
		c-18,0-21.7,2.3-27.7,18.5c1.8,0.5,3.2-0.5,4.2-2.3c4.6-12,14.3-12.9,25.4-12.9c58.2,0.5,116.8,0,175,0c3.2,0,6,0,9.2,0
		c9.7,0.9,15.7,6.9,16.2,17.1c0.9,10.2-5.1,17.5-14.3,19.4c-5.5,0.9-11.5,1.8-17.5,1.8c-15.2,0-30.5,0-45.7,0
		c-11.5,0-12.9,1.8-13.4,12.9c0,3.2,0,6,0,9.2c0,95.6,0,191.2,0,286.8c0,6.5-0.5,12.5-1.8,18.9c-2.8,10.6-10.6,17.1-20.8,16.6
		c-10.6-0.5-18.5-8.3-19.9-19.4c-0.5-4.2-0.5-8.3-0.5-12.5c0-96.1,0-192.1,0-288.2c0-4.2,0-7.9,0-12c-0.5-9.2-2.8-11.5-12-12
		c-10.2-0.5-20.8,0-30.9,0c-11.1,0-22.2,0.9-32.8-1.4c-6.5-1.4-12-4.2-14.8-10.2c-0.9-2.3-1.8-5.1-5.5-4.6
		C3.7,1572.8,15.7,1575.6,29.6,1576.1z"/>
	<path class="st0" d="M1832.4,1226c6,0,12-0.9,16.6-5.5c6.5-6.5,6.9-14.8,4.2-23.1s-9.7-12.5-18.5-12.5c-24.9,0-49.9-0.5-74.3,0
		c-6.5,0-7.4-1.8-7.4-7.9c0.5-22.2,0.5-43.9,0-66c0-6.5,1.8-7.9,7.9-7.9c70.7,0.5,141.3,0,212.4,0c28.2,0,45.3-16.6,45.3-44.8
		c0-140.4,0-281.2,0-421.6c0-5.1-0.5-10.2-1.8-15.2c-5.5-18.5-21.7-29.6-43.9-29.6c-93.7,0-187.5,0-281.2,0s-187.9,0-281.7,0
		c-27.2,0-45.3,16.6-45.3,42.9c0,141.8,0,283.5,0,425.3c0,7.4,1.4,14.8,5.1,21.7c8.8,15.7,23.1,21.7,40.6,21.7
		c71.1,0,141.8,0,212.9,0c6,0,7.4,1.8,7.4,7.4c-0.5,22.6-0.5,44.8,0,67.4c0,5.5-1.4,6.9-6.9,6.9c-25.4-0.5-50.8-0.5-75.7,0
		c-13.9,0-22.6,12-18.9,25.9c2.8,10.2,9.7,14.8,23.1,14.8c66.5,0,133,0,199.5,0C1778.8,1226,1805.6,1226,1832.4,1226z M1414,633.6
		c92.4,0,185.2,0,277.5,0c92.8,0,185.6,0,278.5,0c6.9,0,8.3,1.8,8.3,8.3c-0.5,97-0.5,193.5,0,290.5c0,6.5-1.8,8.3-7.9,7.9
		c-185.6,0-371.3,0-556.5,0c-6.5,0-7.4-1.8-7.4-7.9c0-97,0-194,0-290.9C1405.7,634.9,1407.5,633.6,1414,633.6z M1712.3,1180.3
		c0,3.2-0.5,5.1-4.6,5.1c-10.6-0.5-21.2,0-31.4,0c-3.7,0-4.6-1.4-4.6-4.6c0-12,0-24.5,0-36.5c0-11.5,0-23.1,0-34.2
		c0-4.2,0.9-6,5.5-6c10.2,0.5,20.3,0.5,30,0c4.2,0,5.1,1.4,5.1,5.1C1712.3,1132.7,1712.3,1156.3,1712.3,1180.3z M1692,1062.6
		c-92.8,0-185.6,0-278.5,0c-6.5,0-8.3-1.4-7.9-7.9c0.5-21.7,0.5-43.4,0-65.6c0-6.5,1.4-8.3,8.3-8.3c165.3,0,330.6,0,496,0
		c20.3,0,40.6,0,61,0c5.1,0,6.9,1.4,6.9,6.5c-0.5,22.6-0.5,44.8,0,67.4c0,6-1.4,7.9-7.9,7.9c-77.1,0-154.2,0-231.4,0
		C1723.4,1062.6,1707.7,1062.6,1692,1062.6z"/>
	<path class="st0" d="M1006.2,156.5c18.9-15.2,38.3-29.6,58.6-42c48-29.6,99.7-49.9,155.2-61.9c12.9-2.8,25.9-4.6,38.3-6.9
		c-2.3,3.7-4.6,6-7.4,8.3c-23.1,20.8-44.8,42.5-65.1,66c-43.4,50.3-78.5,106.2-103.4,168.1c-20.3,50.8-33.7,103-40.6,157
		c-1.4,12.5,5.1,22.6,17.1,24.9c10.2,1.8,20.8-5.5,23.1-17.5c1.4-5.5,1.8-11.1,2.8-16.6c7.9-54,23.1-105.7,45.7-155.2
		c42.9-93.3,109.4-167.6,189.3-230.9c2.8-1.8,4.2-2.3,6.9,0c20.8,17.1,40.6,34.2,60.5,52.6c14.8,13.9,28.2,29.1,41.1,45.3
		c8.3,10.2,21.7,11.5,29.6,4.2c9.7-9.2,9.7-20.3,0.5-30.9c-20.3-23.6-42.9-44.8-66-66c-1.8-1.8-4.2-3.7-6-5.5
		c0.5-0.5,0.9-0.9,1.4-1.8c118.2,16.6,218,69.3,299.7,159.3c-4.2,0-6.5,0-8.8,0c-27.2,0-54.5,0-81.7,0c-10.6,0-17.1,5.1-19.4,14.8
		c-3.7,14.8,5.5,25.9,21.7,25.9c41.1,0,82.7,0,123.8,0c22.6,0,19.9-2.8,25.4-17.1c3.7-9.7,2.8-18.5-3.7-26.8
		c-7.4-9.2-15.2-18.5-23.1-27.2c-45.3-51.3-98.8-91.9-160.2-121.5c-96.1-46.2-197.2-63.7-303.4-50.8c-68.3,8.3-132.5,29.6-193,62.8
		c-30,16.6-58.2,36.9-84.5,59.1c-9.7,8.3-11.5,20.3-5.1,28.6C984.5,163.9,996.1,164.8,1006.2,156.5z"/>
	<path class="st0" d="M2287.7,1852.2c-5.5-27.2-11.1-54.5-21.2-80.8c-3.7-8.8-7.4-17.5-14.8-24.5c-9.7-9.2-20.8-15.2-33.2-18.9
		c-1.4-0.5-3.7-0.9-3.7-2.8c0-2.3,2.3-1.8,3.7-1.8c8.3-1.8,16.2-4.6,24-8.3c18.5-8.8,34.2-21.2,42.9-40.6c12-26.8,12-54.5,3.7-82.2
		c-6.9-22.6-21.2-38.3-42.5-48.9c-14.3-6.9-29.6-10.2-45.3-11.1c-29.1-2.3-58.2-0.9-87.3-0.9c-2.3,0-4.6,0.5-6.9,0.9
		c-16.6,4.6-31.4,20.8-30.9,42.5c0.5,52.6,0,104.8,0,157.5c0,50.3,0,100.7,0,151c0,5.1,0,10.2,0.5,15.2c1.4,12.5,8.8,19.9,21.7,20.8
		c12.5,0.9,20.8-6,23.6-18c1.4-5.5,0.9-10.6,0.9-16.2c0-45.3,0-90.5,0-135.8c0-5.1,1.4-6.9,6.5-6.9c12,0.5,24.5-0.9,36.5,0.5
		c22.6,2.3,41.6,11.5,52.6,33.7c10.6,21.7,14.3,45.3,18.5,68.8c3.2,18.5,4.2,37.4,9.7,55.4c4.6,14.8,16.6,20.8,32.8,17.1
		c12.5-2.8,18-12,15.7-27.7C2293.2,1877.6,2290,1865.1,2287.7,1852.2z M2190.3,1697.1c-20.3,4.2-41.1,2.3-61.9,2.8
		c-4.6,0-5.5-2.3-5.5-6c0-16.6,0-32.8,0-49.4c0-15.2,0-30.9,0-46.2c0-17.1,6.5-24,23.1-24.5c19.4-0.5,38.8-0.9,58.2,3.2
		c22.6,5.1,37.9,21.2,40.2,44.3c1.4,14.8,0.5,29.6-6.5,42.9C2228.6,1685,2210.6,1693.4,2190.3,1697.1z"/>
	<path class="st0" d="M1586.7,551.4c17.1,0,23.6-6.5,23.6-24c0-29.6-1.8-59.1-5.5-88.2c-10.2-78-33.7-151.5-73-219.8
		c-6-10.6-14.3-15.7-26.8-15.2c-87.3,0.5-174.6,0-261.4,0c-3.2,0-6,0-9.2,0.5c-10.6,1.8-17.1,10.6-16.2,21.2
		c0.9,11.5,7.9,18.5,18.9,18.9c3.2,0,6,0,9.2,0c82.7,0,164.9,0,247.5,0c4.2,0,6.9,0.9,9.2,5.1c42.5,78,62.8,162.6,66.5,250.8
		c0.5,9.7,0.5,9.7-9.7,9.7c-137.6,0-275.2,0-412.8,0c-4.6,0-8.8,0-13.4,0.9c-8.8,2.8-13.4,10.2-13.4,19.9c0.5,9.7,6,17.5,14.3,18.9
		c3.7,0.9,7.4,0.5,11.1,0.5c73,0,146.4,0,219.4,0C1438.9,551.4,1512.8,551.4,1586.7,551.4z"/>
	<path class="st0" d="M999.8,1542.8c-2.3-12-9.2-18-20.3-18.5c-13.9-0.5-21.2,4.2-24.5,17.1c-0.9,3.7-1.4,7.9-1.4,12
		c0,44.8,0,89.6,0,134.4c0,6.5-2.3,8.3-8.3,8.3c-35.1-0.5-70.2-0.5-105.3,0c-6.5,0-8.8-1.8-8.8-8.8c0.5-43.9,0-88.2,0-132.1
		c0-5.5-0.5-10.6-2.3-15.7c-3.2-9.7-10.2-14.8-21.2-14.8c-11.1,0-18.5,4.6-21.7,14.3c-2.3,6.5-2.3,12.9-2.3,19.4
		c0,109,0,218.4,0,327.4c0,5.1,0.5,10.2,0.9,15.2c1.8,11.5,9.2,18.5,21.2,19.4c11.5,0.9,20.3-5.5,23.6-16.6
		c1.4-5.1,1.4-10.2,1.4-15.2c0-47.1,0-94.2,0-141.3c0-6,1.8-7.4,7.4-7.4c35.6,0.5,71.1,0.5,106.7,0c6.5,0,8.3,1.8,8.3,8.3
		c-0.5,47.6,0,95.6,0,143.2c0,4.2,0,7.9,0.9,12c3.2,11.5,11.5,17.5,23.1,17.1c12-0.5,20.3-7.4,22.2-19.9c0.9-5.1,0.9-10.2,0.9-15.2
		c0-54,0-108.1,0-162.6c0-55,0-109.4,0-164.4C1000.7,1553,1000.7,1547.9,999.8,1542.8z"/>
	<path class="st0" d="M2535.2,1588.5c-16.2-38.8-42.9-63.7-87.3-64.7c-36-0.9-64.2,12.9-84.5,43.4c-10.2,15.2-16.2,31.4-20.8,48.9
		c-9.2,35.1-12,70.7-11.5,110.8c-0.5,12,0.5,28.2,1.8,44.8c3.2,33.2,8.8,65.6,24.5,96.1c23.6,45.7,69.3,61,116.8,48
		c27.2-7.4,44.3-26.8,56.3-51.3c12.9-25.9,18.5-53.6,21.7-81.7c4.2-36.9,4.2-73.9,0.9-110.8
		C2550.9,1643,2546.3,1614.9,2535.2,1588.5z M2506.6,1722.5c-0.9,35.6-2.3,70.7-12.5,104.8c-4.2,14.3-8.8,29.1-22.2,38.3
		c-22.6,15.7-59.1,13.4-73.4-18.5c-7.4-16.6-11.5-34.2-13.9-52.2c-5.1-35.6-6-71.6-4.6-107.1c1.4-27.2,3.7-54.5,14.3-79.9
		c6.9-16.6,16.2-31.4,35.1-36.9c21.2-6,41.6,2.3,54,22.2c10.2,16.2,14.3,33.7,17.5,52.2c1.4,6.5,2.3,13.4,2.8,20.3
		C2505.2,1684.6,2507.1,1703.5,2506.6,1722.5z"/>
	<path class="st0" d="M1632,1590.8c14.8-18.9,42.9-27.2,65.1-18.9c15.2,5.5,24.5,17.5,29.6,32.8c2.8,7.9,4.2,16.2,9.7,23.1
		c6.9,8.8,21.2,12.5,31.4,8.3c7.9-3.2,12.9-12.5,12-21.7c-3.2-25.9-13.4-48-31.9-66.5c-17.5-17.5-40.2-23.1-64.2-24
		c-42.9-0.9-76.2,16.2-97.9,53.6c-11.5,19.9-18.5,41.6-23.6,64.2c-7.4,33.7-8.3,68.3-6.9,103c1.8,37.4,6.5,74.3,21.7,109
		c9.2,20.3,21.7,38.8,41.1,50.3c36.9,21.2,75.7,22.2,113.1,2.3c26.3-13.9,42.9-36.5,45.7-67.4c1.4-16.2,1.4-32.3,1.4-52.2
		c-0.5-13.4,1.4-30-0.9-47.1c-1.8-16.2-11.5-26.8-27.2-30c-22.2-4.2-44.3-2.3-66.5-0.9c-11.5,0.9-17.5,9.7-17.1,21.7
		c0.5,12,5.1,17.5,17.5,19.9c9.7,1.8,19.4,0.9,28.6,0.9c13.9,0.5,17.5,4.2,18,18c0,16.2,0,32.3,0,48.5c0,7.4-0.5,14.8-2.3,22.2
		c-4.6,17.1-14.3,29.1-31.9,33.2c-33.7,8.3-58.2-3.7-73.4-34.6c-11.1-22.6-15.2-46.6-17.5-71.1c-3.7-39.3-4.2-78.5,2.3-117.8
		C1612.1,1629.2,1618.1,1608.4,1632,1590.8z"/>
	<path class="st0" d="M2033.7,1543.7c-2.3-13.4-9.2-19.4-22.2-19.9c-13.4,0-20.8,6-23.6,19.4c-0.5,3.7-0.9,7.4-0.9,11.1
		c0,80.8,0,161.2,0,242c0,11.1-0.5,22.6-3.2,33.7c-2.3,11.5-6.9,22.2-15.7,30c-18,16.2-39.3,17.5-61.9,12
		c-23.1-5.5-34.2-21.2-38.8-42.9c-2.3-11.1-2.8-22.2-2.8-33.7c0-77.6,0-155.2,0-232.7c0-5.1,0-10.2-0.5-15.2
		c-1.4-13.9-7.4-21.2-18.9-22.6c-16.2-2.3-25.4,5.1-27.7,21.2c-0.5,3.7-0.5,7.4-0.5,11.1c0,43.4,0,86.8,0,130.2
		c0,38.3,0,76.2,0,114.5c0,17.5,0.9,34.6,6,51.3c8.3,27.7,24.5,48,52.2,58.6c25.4,9.7,51.7,10.6,78,6.5
		c34.2-5.5,59.1-23.6,71.6-56.8c6.9-18.5,8.8-38.3,8.8-58.2c0-83.6,0-166.7,0-250.3C2034.2,1549.7,2034.2,1546.5,2033.7,1543.7z"/>
	<path class="st0" d="M1201.6,1708.1c-19.9-11.1-40.6-19.9-61.4-29.6c-12.9-6-26.3-12.5-36.5-23.1c-20.8-21.7-18-62.3,6-79
		c14.8-10.6,31.9-10.2,48.9-7.9c17.1,2.3,29.6,11.5,36.9,26.8c3.7,7.9,6.5,16.2,9.7,24c6,14.3,18.9,22.2,31.9,18.9
		c13.4-3.2,18.5-12,16.6-30c-2.3-26.8-17.1-46.6-37.4-62.8c-19.9-16.2-43.9-21.7-72-21.7c-6.9,0.5-17.1,0.5-26.8,3.2
		c-37.9,10.6-65.6,32.3-73,73c-4.6,24.9-2.3,49.9,11.1,72.5c11.1,18,26.8,30.5,45.3,39.7c22.6,11.1,45.7,21.7,67.9,33.2
		c34.2,17.5,48.5,44.8,42.5,80.8c-2.8,18-12,33.2-28.6,42c-35.6,19.9-79.4,0.5-89.1-39.3c-2.3-9.7-3.2-19.4-7.9-28.2
		c-5.5-10.6-16.6-15.2-30-12.5c-10.6,2.3-17.1,10.6-17.5,22.6c-0.5,18.5,6,35.6,14.3,51.3c11.1,21.2,26.8,37.9,49.4,46.6
		c18.9,7.9,38.8,10.2,59.1,9.7c20.8-0.5,40.6-6,58.2-18c41.6-28.6,50.8-86.4,36.9-130.2C1247.3,1742.3,1227,1722.9,1201.6,1708.1z"
		/>
	<path class="st0" d="M1504,1868.8c-5.1-0.5-9.7-0.5-14.8-0.5c-39.3,0-78,0-117.3,0c-17.5,0-23.6-6-23.6-23.6c0-32.8,0-65.1,0-97.9
		c0-6,1.4-7.4,7.4-7.4c35.6,0.5,70.7,0,106.2,0c4.2,0,7.9,0,12-0.5c13.9-0.9,21.2-8.8,21.7-21.2c0.5-13.4-6-20.8-20.3-22.6
		c-5.1-0.5-9.7-0.9-14.8-0.9c-35.1,0-70.2,0-105.3,0c-5.5,0-6.5-1.4-6.5-6.5c0.5-29.6,0-59.1,0-88.7c0-18,6-24,24-24
		c2.3,0,4.6,0,6.9,0c37.4,0,74.3,0,111.8,0c6,0,11.5,0,17.5-1.8c11.1-2.8,16.6-10.6,15.7-21.7c-0.9-11.5-6.9-18-18-19.9
		c-3.7-0.5-7.4-0.5-11.1-0.5c-25.4,0-50.8,0-75.7,0c-25.9,0-51.7,0-77.1,0c-24,0-41.1,17.1-41.1,40.6c0,99.7,0,199.5,0,299.2
		c0,4.2,0,7.9,1.4,12c5.5,18.5,21.2,29.6,43.4,30c48.9,0,97.9,0,146.8,0c5.5,0,10.6-0.5,16.2-1.8c11.5-3.2,17.1-11.1,15.7-23.1
		C1523,1876.2,1516.1,1869.3,1504,1868.8z"/>
	<path class="st0" d="M468.7,1868.8c-20.8-0.5-41.6-0.5-62.3-0.5c-23.1,0-45.7,0-68.8,0c-17.1,0-22.6-6-23.1-23.1c0-1.8,0-3.7,0-5.5
		c0-30.5,0-61.4,0-91.9c0-6.5,1.4-8.3,8.3-8.3c36,0.5,72,0,108.1,0c6.5,0,12.5,0,18.5-2.8c9.7-4.2,13.4-11.1,12-23.6
		c-0.9-9.2-6.9-15.7-16.2-17.1c-5.5-0.9-11.1-1.4-16.6-1.4c-36,0-71.6,0-107.6,0c-3.7,0-6.5,0.5-6.5-5.1c0.5-30.5,0-61.4,0-91.9
		c0-15.2,6-21.2,21.2-22.2c2.8,0,5.1,0,7.9,0c37.9,0,75.7,0,114.1,0c6,0,11.5,0,17.5-1.8c12-3.2,17.5-12.5,15.2-24.5
		c-2.3-12.5-9.7-17.5-25.4-17.5c-53.1,0-106.2,0-159.8,0c-3.2,0-6,0.5-8.8,1.4c-18.9,6.5-29.1,19.9-29.1,39.7c0,49.9,0,99.3,0,149.2
		c0,48.5,0,97,0,145.5c0,5.5-0.5,10.6,1.4,16.2c5.5,18.5,21.2,29.6,42.5,30c49.4,0,98.8,0,148.2,0c4.6,0,9.2-0.5,13.9-1.4
		c12.5-3.2,18.5-11.1,17.1-23.6C489,1875.8,482.1,1868.8,468.7,1868.8z"/>
	<path class="st0" d="M1315.2,1010.4c-33.2-26.8-63.7-56.3-91.9-88.7c-25.9-30-48.9-62.3-70.2-95.6c-4.2-6.5-9.7-8.8-17.1-8.8
		c-36.5,0-72.5,0-109,0c-36.5,0-73,0-109.4,0c-9.7,0-16.6,4.2-20.8,12.5c-4.2,8.3-1.4,15.2,3.7,22.2c23.6,31.4,50.3,60,80.4,85.4
		c72,60.5,153.8,99.7,246.6,116.8c24.5,4.6,48.9,7.4,73.9,8.3c15.7,0.5,25.4-11.1,21.7-25.9c-0.5-1.4-0.9-2.8-0.5-4.6
		C1326.3,1022.4,1322.6,1016.4,1315.2,1010.4z M959.1,859.4c1.8-2.3,3.7-1.4,5.5-1.4c51.7,0,103.4,0,155.2,0c3.7,0,6.5,0.9,8.8,4.2
		c36,55.9,78.5,106.7,128.8,150.5c0.9,0.9,1.8,1.4,2.3,2.3c0.5,0.5,0,0.9,0.5,2.3C1140.6,1000.7,1040.4,948.5,959.1,859.4z"/>
	<path class="st0" d="M730.6,1789.4c-13.4-3.7-25.4,1.8-31.4,14.8c-6.5,14.3-10.2,29.6-18,43.4c-21.7,37.4-66.5,32.3-85.9,2.3
		c-14.8-23.1-19.4-48.9-22.2-75.3c-4.2-38.3-3.2-76.7,1.8-115c2.8-19.4,6.9-38.8,16.2-56.3c9.2-18,22.2-30.5,42.9-33.2
		c24-3.2,45.3,11.5,53.1,37.9c2.8,9.2,4.2,18.9,9.7,26.8c6.5,9.2,15.7,12.9,27.7,9.7c10.2-2.8,14.8-9.7,14.8-21.7
		c0-15.7-4.2-30.5-11.5-44.3c-17.5-33.2-42.5-53.6-81.7-54.5c-23.6-0.5-45.7,4.2-65.1,18c-21.2,15.2-34.2,36.9-42.5,61.4
		c-13.9,38.8-16.2,79.4-16.6,110.8c0,54,4.6,91.9,14.8,122.4c7.9,24.5,19.9,46.6,40.6,62.8c23.6,18.5,50.8,21.7,79,18.9
		c13.9-1.4,27.2-5.1,38.8-12.9c31.4-22.6,45.3-55,50.8-91.9C747.6,1801,740.7,1792.2,730.6,1789.4z"/>
	<path class="st0" d="M858,785.5c5.5,10.2,18.9,14.3,28.6,9.2c8.3-4.2,12-18,6.9-27.7c-4.6-9.7-9.7-19.4-14.3-29.1
		c-25.4-57.3-40.6-116.8-45.3-179.6c-0.5-5.1,0.5-7.4,6.5-7.4c63.7,0.5,127.5,0,191.2,0c5.1,0,6.9,1.4,6.9,6.5
		c0.9,29.6,4.2,59.1,8.8,88.7c6.5,39.7,17.5,78,30.9,115.9c2.8,8.3,9.2,13.4,18,15.2c8.3,1.4,14.3-2.3,18.9-8.8
		c5.1-6.5,5.1-13.9,2.3-21.2c-17.1-44.3-28.2-90-33.7-137.2c-3.2-25.9-4.2-52.2-4.6-78.5c-0.5-11.1-6.5-18.5-17.5-20.3
		c-3.2-0.5-6.5-0.5-9.7-0.5c-38.8,0-77.6,0-116.8,0c-39.7,0-79,0-118.7,0c-16.2,0-23.1,7.4-23.1,23.6c0.5,24.9,1.8,49.9,5.5,74.8
		C807.7,671.4,828,730.1,858,785.5z"/>
	<path class="st0" d="M1813.9,504.3c0,5.1-0.9,6.9-6.5,6.9c-32.8-0.5-65.1,0-97.9,0c-12.5,0-25.4,0-37.9,0
		c-10.6,0-17.5,5.1-20.3,13.4c-4.6,14.8,4.2,27.2,19.9,27.2c27.2,0,54.5,0,81.7,0s54.5,0,81.7,0c12.9,0,20.3-6.9,20.3-20.3
		c0-22.6-0.9-44.8-3.7-67.4c-5.5-40.2-14.8-79.4-29.1-117.8c-8.8-24-19.9-47.1-31.9-69.7c-5.1-9.2-14.3-13.9-22.6-11.5
		c-13.4,3.2-19.4,18-12,31.4C1790.8,361.6,1811.6,430.4,1813.9,504.3z"/>
	<path class="st0" d="M831.2,445.6c8.8-3.2,12-10.6,13.9-18.9c13.9-64.7,39.7-124.2,77.1-178.7c2.3-3.7,5.1-5.5,9.7-5.1
		c20.8,0.5,41.6,0,62.3,0c20.8,0,41.1,0,61.9,0c6,0,12-0.9,17.1-5.5c6-5.5,7.9-15.2,4.6-23.6c-3.7-8.3-10.2-12-18.9-12
		c-48.9,0-97.4,0-146.4,0c-7.4,0-13.9,4.2-18,10.2c-21.2,29.1-39.7,60-55,92.8c-16.6,36-29.1,73.4-37.4,112.2
		c-1.8,9.2,0.9,17.5,7.9,24.5C816,447.9,823.4,448.4,831.2,445.6z"/>
	<path class="st0" d="M1303.2,817.3c-28.2,0-56.8,0-85,0c-12.9,0-20.8,7.9-20.8,20.8c0,12.5,7.4,19.9,20.8,20.3
		c14.3,0,28.6,0,42.9,0c13.9,0,27.7,0,41.6,0c13.4,0,21.7-7.9,21.7-20.3C1324,825.2,1316.1,817.3,1303.2,817.3z"/>
	<path class="st0" d="M1692.5,1001.1c-10.6-0.5-20.3,8.8-20.8,19.4c-0.5,11.1,8.3,21.2,19.4,21.2c11.5,0.5,20.8-8.3,21.2-19.9
		C1712.8,1010.8,1703.5,1001.6,1692.5,1001.1z"/>
	<g>
		<path class="st0" d="M2807.7,1837.9c2.8-20.3,1.4-41.1-0.9-55.9c0-0.5-0.5-0.9-0.5-1.4c-8.3-33.2-30-55-58.6-70.7
			c-21.2-11.5-43.4-20.8-65.6-30.9c-13.9-6.9-27.2-14.8-36-28.2c-13.9-21.2-11.1-54.5,6.5-71.6c6-5.5,12.9-9.2,20.8-11.5
			c11.5-3.2,23.1-3.7,34.6-1.8c23.6,3.2,37.9,18,45.7,39.7c2.8,7.4,5.1,15.2,10.2,21.2c5.5,6.5,12,10.2,20.8,8.8
			c11.5-1.8,17.1-10.6,16.6-23.1c-1.8-36.9-35.6-70.7-64.7-79.4c-25.9-7.9-52.2-8.8-77.6,0.5c-35.1,12.5-61.9,39.7-62.3,83.1
			c0,13.4,0.5,26.8,5.1,39.3c7.9,21.7,22.6,36.9,42,48.5c18.5,11.1,38.8,18.9,58.2,28.6c16.6,7.9,32.8,16.2,45.7,29.6
			c15.7,16.6,21.2,36,18.9,58.2c-1.8,17.5-9.2,32.3-21.7,44.3c-6.5,6-13.9,10.2-21.7,12c-38.3,8.3-71.1-6.9-81.7-47.1
			c-2.3-7.9-3.2-16.2-6.5-23.6c-4.6-10.6-13.9-15.7-25.4-13.9c-11.1,1.8-16.2,8.3-16.2,20.8c-0.5,18.9,6.9,35.6,15.7,51.7
			c16.2,30,42.9,44.8,75.7,49.4c16.2,2.3,32.8,2.3,48.9-1.4c37.9-8.8,61.9-32.8,72-69.7C2806.3,1841.6,2806.8,1839.7,2807.7,1837.9z
			"/>
	</g>
</g>
</svg>
