<?xml version="1.0" encoding="utf-8"?>
<!-- Generator: Adobe Illustrator 26.0.0, SVG Export Plug-In . SVG Version: 6.00 Build 0)  -->
<svg version="1.1" id="Capa_1" xmlns="http://www.w3.org/2000/svg" xmlns:xlink="http://www.w3.org/1999/xlink" x="0px" y="0px"
	 viewBox="0 0 608.3 415.9" style="enable-background:new 0 0 608.3 415.9;" xml:space="preserve">
<style type="text/css">
	.st0{fill:#FEFEFE;}
	.st1{fill:#FDFDFD;}
	.st2{fill:#3E3A71;}
</style>
<g>
	<path class="st0" d="M1.2,338.1c0.7,1.4,1.8,1.9,3.2,2.2c2.4,0.5,4.8,0.3,7.1,0.3c2.2,0,4.5,0,6.7,0c2,0.1,2.5,0.6,2.6,2.6
		c0,0.9,0,1.7,0,2.6c0,20.8,0,41.6,0,62.4c0,0.9,0,1.8,0.1,2.7c0.3,2.4,2,4.1,4.3,4.2c2.2,0.1,3.9-1.2,4.5-3.6
		c0.3-1.3,0.4-2.7,0.4-4.1c0-20.7,0-41.4,0-62.1c0-0.7,0-1.3,0-2c0.1-2.4,0.4-2.8,2.9-2.8c3.3,0,6.6,0,9.9,0c1.3,0,2.5-0.2,3.8-0.4
		c2.1-0.4,3.3-2.1,3.1-4.2c-0.2-2.2-1.4-3.5-3.5-3.7c-0.7-0.1-1.3,0-2,0c-12.6,0-25.3,0-37.9,0c-2.4,0-4.5,0.2-5.5,2.8
		c-0.1,0.3-0.4,0.6-0.9,0.5c0,0.5,0,1,0,1.5C0.8,337,0.9,337.6,1.2,338.1z"/>
	<path class="st0" d="M6.4,341.3c3.9,0,7.7,0,11.6,0c2,0,2,0,2,2c0,21.5,0,43,0,64.5c0,1.2,0,2.3,0.2,3.5c0.3,2.6,2.1,4.4,4.6,4.5
		c2.9,0.2,4.9-1.1,5.6-3.8c0.4-1.3,0.4-2.7,0.4-4.1c0-21.7,0-43.3,0-65c0-1.3,0.3-1.7,1.7-1.7c4.6,0,9.2,0.3,13.8-0.2
		c3.7-0.4,5.5-4,3.7-7.3c-1.2-2.1-3.2-2.2-5.3-2.2c-12.9,0-25.8,0-38.7,0c-3.9,0-4.7,0.5-6,4c0.4,0.1,0.7-0.1,0.9-0.5
		c1-2.6,3.1-2.8,5.5-2.8c12.6,0.1,25.3,0,37.9,0c0.7,0,1.3,0,2,0c2.1,0.2,3.4,1.5,3.5,3.7c0.2,2.2-1.1,3.8-3.1,4.2
		c-1.2,0.2-2.5,0.4-3.8,0.4c-3.3,0-6.6,0-9.9,0c-2.5,0-2.8,0.4-2.9,2.8c0,0.7,0,1.3,0,2c0,20.7,0,41.4,0,62.1c0,1.4-0.1,2.7-0.4,4.1
		c-0.6,2.3-2.3,3.7-4.5,3.6c-2.3-0.1-4-1.8-4.3-4.2c-0.1-0.9-0.1-1.8-0.1-2.7c0-20.8,0-41.6,0-62.4c0-0.9,0-1.7,0-2.6
		c-0.1-2-0.6-2.5-2.6-2.6c-2.2-0.1-4.5,0-6.7,0c-2.4,0-4.8,0.2-7.1-0.3c-1.4-0.3-2.6-0.9-3.2-2.2c-0.2-0.5-0.4-1.1-1.2-1
		C0.8,340.6,3.4,341.2,6.4,341.3z"/>
	<path class="st0" d="M396.8,265.5c1.3,0,2.6-0.2,3.6-1.2c1.4-1.4,1.5-3.2,0.9-5c-0.6-1.8-2.1-2.7-4-2.7c-5.4,0-10.8-0.1-16.1,0
		c-1.4,0-1.6-0.4-1.6-1.7c0.1-4.8,0.1-9.5,0-14.3c0-1.4,0.4-1.7,1.7-1.7c15.3,0.1,30.6,0,46,0c6.1,0,9.8-3.6,9.8-9.7
		c0-30.4,0-60.9,0-91.3c0-1.1-0.1-2.2-0.4-3.3c-1.2-4-4.7-6.4-9.5-6.4c-20.3,0-40.6,0-60.9,0c-20.3,0-40.7,0-61,0
		c-5.9,0-9.8,3.6-9.8,9.3c0,30.7,0,61.4,0,92.1c0,1.6,0.3,3.2,1.1,4.7c1.9,3.4,5,4.7,8.8,4.7c15.4,0,30.7,0,46.1,0
		c1.3,0,1.6,0.4,1.6,1.6c-0.1,4.9-0.1,9.7,0,14.6c0,1.2-0.3,1.5-1.5,1.5c-5.5-0.1-11-0.1-16.4,0c-3,0-4.9,2.6-4.1,5.6
		c0.6,2.2,2.1,3.2,5,3.2c14.4,0,28.8,0,43.2,0C385.2,265.5,391,265.5,396.8,265.5z M306.2,137.2c20,0,40.1,0,60.1,0
		c20.1,0,40.2,0,60.3,0c1.5,0,1.8,0.4,1.8,1.8c-0.1,21-0.1,41.9,0,62.9c0,1.4-0.4,1.8-1.7,1.7c-40.2,0-80.4,0-120.5,0
		c-1.4,0-1.6-0.4-1.6-1.7c0-21,0-42,0-63C304.4,137.5,304.8,137.2,306.2,137.2z M370.8,255.6c0,0.7-0.1,1.1-1,1.1
		c-2.3-0.1-4.6,0-6.8,0c-0.8,0-1-0.3-1-1c0-2.6,0-5.3,0-7.9c0-2.5,0-5,0-7.4c0-0.9,0.2-1.3,1.2-1.3c2.2,0.1,4.4,0.1,6.5,0
		c0.9,0,1.1,0.3,1.1,1.1C370.8,245.3,370.8,250.4,370.8,255.6z M366.4,230.1c-20.1,0-40.2,0-60.3,0c-1.4,0-1.8-0.3-1.7-1.7
		c0.1-4.7,0.1-9.4,0-14.2c0-1.4,0.3-1.8,1.8-1.8c35.8,0,71.6,0,107.4,0c4.4,0,8.8,0,13.2,0c1.1,0,1.5,0.3,1.5,1.4
		c-0.1,4.9-0.1,9.7,0,14.6c0,1.3-0.3,1.7-1.7,1.7c-16.7,0-33.4,0-50.1,0C373.2,230.1,369.8,230.1,366.4,230.1z"/>
	<path class="st0" d="M217.9,33.9c4.1-3.3,8.3-6.4,12.7-9.1c10.4-6.4,21.6-10.8,33.6-13.4c2.8-0.6,5.6-1,8.3-1.5
		c-0.5,0.8-1,1.3-1.6,1.8c-5,4.5-9.7,9.2-14.1,14.3c-9.4,10.9-17,23-22.4,36.4c-4.4,11-7.3,22.3-8.8,34c-0.3,2.7,1.1,4.9,3.7,5.4
		c2.2,0.4,4.5-1.2,5-3.8c0.3-1.2,0.4-2.4,0.6-3.6c1.7-11.7,5-22.9,9.9-33.6c9.3-20.2,23.7-36.3,41-50c0.6-0.4,0.9-0.5,1.5,0
		c4.5,3.7,8.8,7.4,13.1,11.4c3.2,3,6.1,6.3,8.9,9.8c1.8,2.2,4.7,2.5,6.4,0.9c2.1-2,2.1-4.4,0.1-6.7c-4.4-5.1-9.3-9.7-14.3-14.3
		c-0.4-0.4-0.9-0.8-1.3-1.2c0.1-0.1,0.2-0.2,0.3-0.4c25.6,3.6,47.2,15,64.9,34.5c-0.9,0-1.4,0-1.9,0c-5.9,0-11.8,0-17.7,0
		c-2.3,0-3.7,1.1-4.2,3.2c-0.8,3.2,1.2,5.6,4.7,5.6c8.9,0,17.9,0,26.8,0c4.9,0,4.3-0.6,5.5-3.7c0.8-2.1,0.6-4-0.8-5.8
		c-1.6-2-3.3-4-5-5.9c-9.8-11.1-21.4-19.9-34.7-26.3c-20.8-10-42.7-13.8-65.7-11c-14.8,1.8-28.7,6.4-41.8,13.6
		c-6.5,3.6-12.6,8-18.3,12.8c-2.1,1.8-2.5,4.4-1.1,6.2C213.2,35.5,215.7,35.7,217.9,33.9z"/>
	<path class="st0" d="M495.4,401.1c-1.2-5.9-2.4-11.8-4.6-17.5c-0.8-1.9-1.6-3.8-3.2-5.3c-2.1-2-4.5-3.3-7.2-4.1
		c-0.3-0.1-0.8-0.2-0.8-0.6c0-0.5,0.5-0.4,0.8-0.4c1.8-0.4,3.5-1,5.2-1.8c4-1.9,7.4-4.6,9.3-8.8c2.6-5.8,2.6-11.8,0.8-17.8
		c-1.5-4.9-4.6-8.3-9.2-10.6c-3.1-1.5-6.4-2.2-9.8-2.4c-6.3-0.5-12.6-0.2-18.9-0.2c-0.5,0-1,0.1-1.5,0.2c-3.6,1-6.8,4.5-6.7,9.2
		c0.1,11.4,0,22.7,0,34.1c0,10.9,0,21.8,0,32.7c0,1.1,0,2.2,0.1,3.3c0.3,2.7,1.9,4.3,4.7,4.5c2.7,0.2,4.5-1.3,5.1-3.9
		c0.3-1.2,0.2-2.3,0.2-3.5c0-9.8,0-19.6,0-29.4c0-1.1,0.3-1.5,1.4-1.5c2.6,0.1,5.3-0.2,7.9,0.1c4.9,0.5,9,2.5,11.4,7.3
		c2.3,4.7,3.1,9.8,4,14.9c0.7,4,0.9,8.1,2.1,12c1,3.2,3.6,4.5,7.1,3.7c2.7-0.6,3.9-2.6,3.4-6C496.6,406.6,495.9,403.9,495.4,401.1z
		 M474.3,367.5c-4.4,0.9-8.9,0.5-13.4,0.6c-1,0-1.2-0.5-1.2-1.3c0-3.6,0-7.1,0-10.7c0-3.3,0-6.7,0-10c0-3.7,1.4-5.2,5-5.3
		c4.2-0.1,8.4-0.2,12.6,0.7c4.9,1.1,8.2,4.6,8.7,9.6c0.3,3.2,0.1,6.4-1.4,9.3C482.6,364.9,478.7,366.7,474.3,367.5z"/>
	<path class="st0" d="M343.6,119.4c3.7,0,5.1-1.4,5.1-5.2c0-6.4-0.4-12.8-1.2-19.1c-2.2-16.9-7.3-32.8-15.8-47.6
		c-1.3-2.3-3.1-3.4-5.8-3.3c-18.9,0.1-37.8,0-56.6,0c-0.7,0-1.3,0-2,0.1c-2.3,0.4-3.7,2.3-3.5,4.6c0.2,2.5,1.7,4,4.1,4.1
		c0.7,0,1.3,0,2,0c17.9,0,35.7,0,53.6,0c0.9,0,1.5,0.2,2,1.1c9.2,16.9,13.6,35.2,14.4,54.3c0.1,2.1,0.1,2.1-2.1,2.1
		c-29.8,0-59.6,0-89.4,0c-1,0-1.9,0-2.9,0.2c-1.9,0.6-2.9,2.2-2.9,4.3c0.1,2.1,1.3,3.8,3.1,4.1c0.8,0.2,1.6,0.1,2.4,0.1
		c15.8,0,31.7,0,47.5,0C311.6,119.4,327.6,119.4,343.6,119.4z"/>
	<path class="st0" d="M216.5,334.1c-0.5-2.6-2-3.9-4.4-4c-3-0.1-4.6,0.9-5.3,3.7c-0.2,0.8-0.3,1.7-0.3,2.6c0,9.7,0,19.4,0,29.1
		c0,1.4-0.5,1.8-1.8,1.8c-7.6-0.1-15.2-0.1-22.8,0c-1.4,0-1.9-0.4-1.9-1.9c0.1-9.5,0-19.1,0-28.6c0-1.2-0.1-2.3-0.5-3.4
		c-0.7-2.1-2.2-3.2-4.6-3.2c-2.4,0-4,1-4.7,3.1c-0.5,1.4-0.5,2.8-0.5,4.2c0,23.6,0,47.3,0,70.9c0,1.1,0.1,2.2,0.2,3.3
		c0.4,2.5,2,4,4.6,4.2c2.5,0.2,4.4-1.2,5.1-3.6c0.3-1.1,0.3-2.2,0.3-3.3c0-10.2,0-20.4,0-30.6c0-1.3,0.4-1.6,1.6-1.6
		c7.7,0.1,15.4,0.1,23.1,0c1.4,0,1.8,0.4,1.8,1.8c-0.1,10.3,0,20.7,0,31c0,0.9,0,1.7,0.2,2.6c0.7,2.5,2.5,3.8,5,3.7
		c2.6-0.1,4.4-1.6,4.8-4.3c0.2-1.1,0.2-2.2,0.2-3.3c0-11.7,0-23.4,0-35.2c0-11.9,0-23.7,0-35.6C216.7,336.3,216.7,335.2,216.5,334.1
		z"/>
	<path class="st0" d="M549,344c-3.5-8.4-9.3-13.8-18.9-14c-7.8-0.2-13.9,2.8-18.3,9.4c-2.2,3.3-3.5,6.8-4.5,10.6
		c-2,7.6-2.6,15.3-2.5,24c-0.1,2.6,0.1,6.1,0.4,9.7c0.7,7.2,1.9,14.2,5.3,20.8c5.1,9.9,15,13.2,25.3,10.4c5.9-1.6,9.6-5.8,12.2-11.1
		c2.8-5.6,4-11.6,4.7-17.7c0.9-8,0.9-16,0.2-24C552.4,355.8,551.4,349.7,549,344z M542.8,373c-0.2,7.7-0.5,15.3-2.7,22.7
		c-0.9,3.1-1.9,6.3-4.8,8.3c-4.9,3.4-12.8,2.9-15.9-4c-1.6-3.6-2.5-7.4-3-11.3c-1.1-7.7-1.3-15.5-1-23.2c0.3-5.9,0.8-11.8,3.1-17.3
		c1.5-3.6,3.5-6.8,7.6-8c4.6-1.3,9,0.5,11.7,4.8c2.2,3.5,3.1,7.3,3.8,11.3c0.3,1.4,0.5,2.9,0.6,4.4
		C542.5,364.8,542.9,368.9,542.8,373z"/>
	<path class="st0" d="M353.4,344.5c3.2-4.1,9.3-5.9,14.1-4.1c3.3,1.2,5.3,3.8,6.4,7.1c0.6,1.7,0.9,3.5,2.1,5
		c1.5,1.9,4.6,2.7,6.8,1.8c1.7-0.7,2.8-2.7,2.6-4.7c-0.7-5.6-2.9-10.4-6.9-14.4c-3.8-3.8-8.7-5-13.9-5.2
		c-9.3-0.2-16.5,3.5-21.2,11.6c-2.5,4.3-4,9-5.1,13.9c-1.6,7.3-1.8,14.8-1.5,22.3c0.4,8.1,1.4,16.1,4.7,23.6c2,4.4,4.7,8.4,8.9,10.9
		c8,4.6,16.4,4.8,24.5,0.5c5.7-3,9.3-7.9,9.9-14.6c0.3-3.5,0.3-7,0.3-11.3c-0.1-2.9,0.3-6.5-0.2-10.2c-0.4-3.5-2.5-5.8-5.9-6.5
		c-4.8-0.9-9.6-0.5-14.4-0.2c-2.5,0.2-3.8,2.1-3.7,4.7c0.1,2.6,1.1,3.8,3.8,4.3c2.1,0.4,4.2,0.2,6.2,0.2c3,0.1,3.8,0.9,3.9,3.9
		c0,3.5,0,7,0,10.5c0,1.6-0.1,3.2-0.5,4.8c-1,3.7-3.1,6.3-6.9,7.2c-7.3,1.8-12.6-0.8-15.9-7.5c-2.4-4.9-3.3-10.1-3.8-15.4
		c-0.8-8.5-0.9-17,0.5-25.5C349.1,352.8,350.4,348.3,353.4,344.5z"/>
	<path class="st0" d="M440.4,334.3c-0.5-2.9-2-4.2-4.8-4.3c-2.9,0-4.5,1.3-5.1,4.2c-0.1,0.8-0.2,1.6-0.2,2.4c0,17.5,0,34.9,0,52.4
		c0,2.4-0.1,4.9-0.7,7.3c-0.5,2.5-1.5,4.8-3.4,6.5c-3.9,3.5-8.5,3.8-13.4,2.6c-5-1.2-7.4-4.6-8.4-9.3c-0.5-2.4-0.6-4.8-0.6-7.3
		c0-16.8,0-33.6,0-50.4c0-1.1,0-2.2-0.1-3.3c-0.3-3-1.6-4.6-4.1-4.9c-3.5-0.5-5.5,1.1-6,4.6c-0.1,0.8-0.1,1.6-0.1,2.4
		c0,9.4,0,18.8,0,28.2c0,8.3,0,16.5,0,24.8c0,3.8,0.2,7.5,1.3,11.1c1.8,6,5.3,10.4,11.3,12.7c5.5,2.1,11.2,2.3,16.9,1.4
		c7.4-1.2,12.8-5.1,15.5-12.3c1.5-4,1.9-8.3,1.9-12.6c0-18.1,0-36.1,0-54.2C440.5,335.6,440.5,334.9,440.4,334.3z"/>
	<path class="st0" d="M260.2,369.9c-4.3-2.4-8.8-4.3-13.3-6.4c-2.8-1.3-5.7-2.7-7.9-5c-4.5-4.7-3.9-13.5,1.3-17.1
		c3.2-2.3,6.9-2.2,10.6-1.7c3.7,0.5,6.4,2.5,8,5.8c0.8,1.7,1.4,3.5,2.1,5.2c1.3,3.1,4.1,4.8,6.9,4.1c2.9-0.7,4-2.6,3.6-6.5
		c-0.5-5.8-3.7-10.1-8.1-13.6c-4.3-3.5-9.5-4.7-15.6-4.7c-1.5,0.1-3.7,0.1-5.8,0.7c-8.2,2.3-14.2,7-15.8,15.8
		c-1,5.4-0.5,10.8,2.4,15.7c2.4,3.9,5.8,6.6,9.8,8.6c4.9,2.4,9.9,4.7,14.7,7.2c7.4,3.8,10.5,9.7,9.2,17.5c-0.6,3.9-2.6,7.2-6.2,9.1
		c-7.7,4.3-17.2,0.1-19.3-8.5c-0.5-2.1-0.7-4.2-1.7-6.1c-1.2-2.3-3.6-3.3-6.5-2.7c-2.3,0.5-3.7,2.3-3.8,4.9c-0.1,4,1.3,7.7,3.1,11.1
		c2.4,4.6,5.8,8.2,10.7,10.1c4.1,1.7,8.4,2.2,12.8,2.1c4.5-0.1,8.8-1.3,12.6-3.9c9-6.2,11-18.7,8-28.2
		C270.1,377.3,265.7,373.1,260.2,369.9z"/>
	<path class="st0" d="M325.7,404.7c-1.1-0.1-2.1-0.1-3.2-0.1c-8.5,0-16.9,0-25.4,0c-3.8,0-5.1-1.3-5.1-5.1c0-7.1,0-14.1,0-21.2
		c0-1.3,0.3-1.6,1.6-1.6c7.7,0.1,15.3,0,23,0c0.9,0,1.7,0,2.6-0.1c3-0.2,4.6-1.9,4.7-4.6c0.1-2.9-1.3-4.5-4.4-4.9
		c-1.1-0.1-2.1-0.2-3.2-0.2c-7.6,0-15.2,0-22.8,0c-1.2,0-1.4-0.3-1.4-1.4c0.1-6.4,0-12.8,0-19.2c0-3.9,1.3-5.2,5.2-5.2
		c0.5,0,1,0,1.5,0c8.1,0,16.1,0,24.2,0c1.3,0,2.5,0,3.8-0.4c2.4-0.6,3.6-2.3,3.4-4.7c-0.2-2.5-1.5-3.9-3.9-4.3
		c-0.8-0.1-1.6-0.1-2.4-0.1c-5.5,0-11,0-16.4,0c-5.6,0-11.2,0-16.7,0c-5.2,0-8.9,3.7-8.9,8.8c0,21.6,0,43.2,0,64.8
		c0,0.9,0,1.7,0.3,2.6c1.2,4,4.6,6.4,9.4,6.5c10.6,0,21.2,0,31.8,0c1.2,0,2.3-0.1,3.5-0.4c2.5-0.7,3.7-2.4,3.4-5
		C329.8,406.3,328.3,404.8,325.7,404.7z"/>
	<path class="st1" d="M101.5,404.7c-4.5-0.1-9-0.1-13.5-0.1c-5,0-9.9,0-14.9,0c-3.7,0-4.9-1.3-5-5c0-0.4,0-0.8,0-1.2
		c0-6.6,0-13.3,0-19.9c0-1.4,0.3-1.8,1.8-1.8c7.8,0.1,15.6,0,23.4,0c1.4,0,2.7,0,4-0.6c2.1-0.9,2.9-2.4,2.6-5.1
		c-0.2-2-1.5-3.4-3.5-3.7c-1.2-0.2-2.4-0.3-3.6-0.3c-7.8,0-15.5,0-23.3,0c-0.8,0-1.4,0.1-1.4-1.1c0.1-6.6,0-13.3,0-19.9
		c0-3.3,1.3-4.6,4.6-4.8c0.6,0,1.1,0,1.7,0c8.2,0,16.4,0,24.7,0c1.3,0,2.5,0,3.8-0.4c2.6-0.7,3.8-2.7,3.3-5.3
		c-0.5-2.7-2.1-3.8-5.5-3.8c-11.5,0-23,0-34.6,0c-0.7,0-1.3,0.1-1.9,0.3c-4.1,1.4-6.3,4.3-6.3,8.6c0,10.8,0,21.5,0,32.3
		c0,10.5,0,21,0,31.5c0,1.2-0.1,2.3,0.3,3.5c1.2,4,4.6,6.4,9.2,6.5c10.7,0,21.4,0,32.1,0c1,0,2-0.1,3-0.3c2.7-0.7,4-2.4,3.7-5.1
		C105.9,406.2,104.4,404.7,101.5,404.7z"/>
	<path class="st0" d="M284.8,218.8c-7.2-5.8-13.8-12.2-19.9-19.2c-5.6-6.5-10.6-13.5-15.2-20.7c-0.9-1.4-2.1-1.9-3.7-1.9
		c-7.9,0-15.7,0-23.6,0c-7.9,0-15.8,0-23.7,0c-2.1,0-3.6,0.9-4.5,2.7c-0.9,1.8-0.3,3.3,0.8,4.8c5.1,6.8,10.9,13,17.4,18.5
		c15.6,13.1,33.3,21.6,53.4,25.3c5.3,1,10.6,1.6,16,1.8c3.4,0.1,5.5-2.4,4.7-5.6c-0.1-0.3-0.2-0.6-0.1-1
		C287.2,221.4,286.4,220.1,284.8,218.8z M207.7,186.1c0.4-0.5,0.8-0.3,1.2-0.3c11.2,0,22.4,0,33.6,0c0.8,0,1.4,0.2,1.9,0.9
		c7.8,12.1,17,23.1,27.9,32.6c0.2,0.2,0.4,0.3,0.5,0.5c0.1,0.1,0,0.2,0.1,0.5C247,216.7,225.3,205.4,207.7,186.1z"/>
	<path class="st0" d="M158.2,387.5c-2.9-0.8-5.5,0.4-6.8,3.2c-1.4,3.1-2.2,6.4-3.9,9.4c-4.7,8.1-14.4,7-18.6,0.5
		c-3.2-5-4.2-10.6-4.8-16.3c-0.9-8.3-0.7-16.6,0.4-24.9c0.6-4.2,1.5-8.4,3.5-12.2c2-3.9,4.8-6.6,9.3-7.2c5.2-0.7,9.8,2.5,11.5,8.2
		c0.6,2,0.9,4.1,2.1,5.8c1.4,2,3.4,2.8,6,2.1c2.2-0.6,3.2-2.1,3.2-4.7c0-3.4-0.9-6.6-2.5-9.6c-3.8-7.2-9.2-11.6-17.7-11.8
		c-5.1-0.1-9.9,0.9-14.1,3.9c-4.6,3.3-7.4,8-9.2,13.3c-3,8.4-3.5,17.2-3.6,24c0,11.7,1,19.9,3.2,26.5c1.7,5.3,4.3,10.1,8.8,13.6
		c5.1,4,11,4.7,17.1,4.1c3-0.3,5.9-1.1,8.4-2.8c6.8-4.9,9.8-11.9,11-19.9C161.9,390,160.4,388.1,158.2,387.5z"/>
	<path class="st0" d="M185.8,170.1c1.2,2.2,4.1,3.1,6.2,2c1.8-0.9,2.6-3.9,1.5-6c-1-2.1-2.1-4.2-3.1-6.3
		c-5.5-12.4-8.8-25.3-9.8-38.9c-0.1-1.1,0.1-1.6,1.4-1.6c13.8,0.1,27.6,0,41.4,0c1.1,0,1.5,0.3,1.5,1.4c0.2,6.4,0.9,12.8,1.9,19.2
		c1.4,8.6,3.8,16.9,6.7,25.1c0.6,1.8,2,2.9,3.9,3.3c1.8,0.3,3.1-0.5,4.1-1.9c1.1-1.4,1.1-3,0.5-4.6c-3.7-9.6-6.1-19.5-7.3-29.7
		c-0.7-5.6-0.9-11.3-1-17c-0.1-2.4-1.4-4-3.8-4.4c-0.7-0.1-1.4-0.1-2.1-0.1c-8.4,0-16.8,0-25.3,0c-8.6,0-17.1,0-25.7,0
		c-3.5,0-5,1.6-5,5.1c0.1,5.4,0.4,10.8,1.2,16.2C174.9,145.4,179.3,158.1,185.8,170.1z"/>
	<path class="st0" d="M392.8,109.2c0,1.1-0.2,1.5-1.4,1.5c-7.1-0.1-14.1,0-21.2,0c-2.7,0-5.5,0-8.2,0c-2.3,0-3.8,1.1-4.4,2.9
		c-1,3.2,0.9,5.9,4.3,5.9c5.9,0,11.8,0,17.7,0s11.8,0,17.7,0c2.8,0,4.4-1.5,4.4-4.4c0-4.9-0.2-9.7-0.8-14.6
		c-1.2-8.7-3.2-17.2-6.3-25.5c-1.9-5.2-4.3-10.2-6.9-15.1c-1.1-2-3.1-3-4.9-2.5c-2.9,0.7-4.2,3.9-2.6,6.8
		C387.8,78.3,392.3,93.2,392.8,109.2z"/>
	<path class="st0" d="M180,96.5c1.9-0.7,2.6-2.3,3-4.1c3-14,8.6-26.9,16.7-38.7c0.5-0.8,1.1-1.2,2.1-1.1c4.5,0.1,9,0,13.5,0
		c4.5,0,8.9,0,13.4,0c1.3,0,2.6-0.2,3.7-1.2c1.3-1.2,1.7-3.3,1-5.1c-0.8-1.8-2.2-2.6-4.1-2.6c-10.6,0-21.1,0-31.7,0
		c-1.6,0-3,0.9-3.9,2.2c-4.6,6.3-8.6,13-11.9,20.1c-3.6,7.8-6.3,15.9-8.1,24.3c-0.4,2,0.2,3.8,1.7,5.3C176.7,97,178.3,97.1,180,96.5
		z"/>
	<path class="st0" d="M282.2,177c-6.1,0-12.3,0-18.4,0c-2.8,0-4.5,1.7-4.5,4.5c0,2.7,1.6,4.3,4.5,4.4c3.1,0,6.2,0,9.3,0c3,0,6,0,9,0
		c2.9,0,4.7-1.7,4.7-4.4C286.7,178.7,285,177,282.2,177z"/>
	<path class="st0" d="M366.5,216.8c-2.3-0.1-4.4,1.9-4.5,4.2c-0.1,2.4,1.8,4.6,4.2,4.6c2.5,0.1,4.5-1.8,4.6-4.3
		C370.9,218.9,368.9,216.9,366.5,216.8z"/>
	<g>
		<path class="st0" d="M608,398c0.6-4.4,0.3-8.9-0.2-12.1c0-0.1-0.1-0.2-0.1-0.3c-1.8-7.2-6.5-11.9-12.7-15.3
			c-4.6-2.5-9.4-4.5-14.2-6.7c-3-1.5-5.9-3.2-7.8-6.1c-3-4.6-2.4-11.8,1.4-15.5c1.3-1.2,2.8-2,4.5-2.5c2.5-0.7,5-0.8,7.5-0.4
			c5.1,0.7,8.2,3.9,9.9,8.6c0.6,1.6,1.1,3.3,2.2,4.6c1.2,1.4,2.6,2.2,4.5,1.9c2.5-0.4,3.7-2.3,3.6-5c-0.4-8-7.7-15.3-14-17.2
			c-5.6-1.7-11.3-1.9-16.8,0.1c-7.6,2.7-13.4,8.6-13.5,18c0,2.9,0.1,5.8,1.1,8.5c1.7,4.7,4.9,8,9.1,10.5c4,2.4,8.4,4.1,12.6,6.2
			c3.6,1.7,7.1,3.5,9.9,6.4c3.4,3.6,4.6,7.8,4.1,12.6c-0.4,3.8-2,7-4.7,9.6c-1.4,1.3-3,2.2-4.7,2.6c-8.3,1.8-15.4-1.5-17.7-10.2
			c-0.5-1.7-0.7-3.5-1.4-5.1c-1-2.3-3-3.4-5.5-3c-2.4,0.4-3.5,1.8-3.5,4.5c-0.1,4.1,1.5,7.7,3.4,11.2c3.5,6.5,9.3,9.7,16.4,10.7
			c3.5,0.5,7.1,0.5,10.6-0.3c8.2-1.9,13.4-7.1,15.6-15.1C607.7,398.8,607.8,398.4,608,398z"/>
	</g>
</g>
</svg>
