<?xml version="1.0" encoding="utf-8"?>
<!-- Generator: Adobe Illustrator 26.0.0, SVG Export Plug-In . SVG Version: 6.00 Build 0)  -->
<svg version="1.1" id="Layer_1" xmlns="http://www.w3.org/2000/svg" xmlns:xlink="http://www.w3.org/1999/xlink" x="0px" y="0px"
	 viewBox="0 0 276.7 273.9" style="enable-background:new 0 0 276.7 273.9;" xml:space="preserve">
<style type="text/css">
	.st0{fill:#009ADE;}
	.st1{fill:#002F87;}
	.st2{fill:#002169;}
</style>
<g>
	<g>
		<g>
			<g>
				<path class="st0" d="M186.9,200.7h-21.5c-1.5,0-2.7,1.1-3,2.5l-8.7,55.2c-0.2,1.1,0.7,2.1,1.8,2.1h11c1,0,1.9-0.7,2.1-1.8
					l2.5-15.6c0.2-1.5,1.5-2.5,3-2.5h6.8c14.2,0,22.4-6.9,24.5-20.5c1-5.9,0-10.6-2.7-13.9C199.5,202.6,194.1,200.7,186.9,200.7z
					 M189.4,220.9c-1.2,7.7-7.1,7.7-12.8,7.7h-3.2l2.3-14.4c0.1-0.9,0.9-1.5,1.8-1.5h1.5c3.9,0,7.6,0,9.4,2.2
					C189.4,216.2,189.8,218.2,189.4,220.9z"/>
				<path class="st1" d="M33.3,200.7H11.8c-1.5,0-2.7,1.1-3,2.5l-8.7,55.2c-0.2,1.1,0.7,2.1,1.8,2.1h10.3c1.5,0,2.7-1.1,3-2.5
					l2.3-14.9c0.2-1.5,1.5-2.5,3-2.5h6.8c14.2,0,22.4-6.9,24.5-20.5c1-5.9,0-10.6-2.7-13.9C46,202.6,40.5,200.7,33.3,200.7z
					 M35.8,220.9c-1.2,7.7-7.1,7.7-12.8,7.7h-3.2l2.3-14.4c0.1-0.9,0.9-1.5,1.8-1.5h1.5c3.9,0,7.6,0,9.4,2.2
					C35.9,216.2,36.2,218.2,35.8,220.9z"/>
				<path class="st1" d="M97.7,220.6H87.4c-0.9,0-1.6,0.6-1.8,1.5l-0.5,2.9l-0.7-1c-2.2-3.2-7.2-4.3-12.2-4.3
					c-11.4,0-21.1,8.6-23,20.7c-1,6,0.4,11.8,3.8,15.8c3.1,3.7,7.6,5.2,13,5.2c9.2,0,14.3-5.9,14.3-5.9l-0.5,2.9
					c-0.2,1.1,0.7,2.1,1.8,2.1h9.3c1.5,0,2.7-1.1,3-2.5l5.6-35.3C99.6,221.6,98.8,220.6,97.7,220.6z M83.3,240.7
					c-1,5.9-5.7,9.8-11.6,9.8c-3,0-5.4-1-6.9-2.8c-1.5-1.8-2.1-4.4-1.6-7.2c0.9-5.8,5.7-9.9,11.6-9.9c2.9,0,5.3,1,6.9,2.8
					C83.1,235.3,83.8,237.8,83.3,240.7z"/>
				<path class="st0" d="M251.2,220.6h-10.3c-0.9,0-1.6,0.6-1.8,1.5l-0.5,2.9l-0.7-1c-2.2-3.2-7.2-4.3-12.2-4.3
					c-11.4,0-21.1,8.6-23,20.7c-1,6,0.4,11.8,3.8,15.8c3.1,3.7,7.6,5.2,13,5.2c9.2,0,14.3-5.9,14.3-5.9l-0.5,2.9
					c-0.2,1.1,0.7,2.1,1.8,2.1h9.3c1.5,0,2.7-1.1,3-2.5l5.6-35.3C253.2,221.6,252.3,220.6,251.2,220.6z M236.8,240.7
					c-1,5.9-5.7,9.8-11.6,9.8c-3,0-5.4-1-6.9-2.8c-1.5-1.8-2.1-4.4-1.6-7.2c0.9-5.8,5.7-9.9,11.6-9.9c2.9,0,5.3,1,6.9,2.8
					C236.7,235.3,237.3,237.8,236.8,240.7z"/>
				<path class="st1" d="M152.6,220.6h-10.4c-1,0-1.9,0.5-2.5,1.3l-14.3,21l-6.1-20.2c-0.4-1.3-1.5-2.1-2.9-2.1h-10.2
					c-1.2,0-2.1,1.2-1.7,2.4l11.4,33.5l-10.7,15.1c-0.8,1.2,0,2.8,1.5,2.8h10.4c1,0,1.9-0.5,2.5-1.3l34.5-49.7
					C154.9,222.3,154,220.6,152.6,220.6z"/>
				<path class="st0" d="M263.4,202.2l-8.8,56.2c-0.2,1.1,0.7,2.1,1.8,2.1h8.9c1.5,0,2.7-1.1,3-2.5l8.7-55.2
					c0.2-1.1-0.7-2.1-1.8-2.1h-9.9C264.3,200.7,263.5,201.4,263.4,202.2z"/>
			</g>
		</g>
	</g>
</g>
<g>
	<path class="st0" d="M205.6,45.9c2.2-13.9,0-23.3-7.5-31.9c-8.3-9.4-23.2-13.5-42.3-13.5h-55.5c-3.9,0-7.2,2.8-7.8,6.7L69.3,153.8
		c-0.5,2.9,1.8,5.5,4.7,5.5h34.3l-2.4,15c-0.4,2.5,1.6,4.8,4.1,4.8h28.9c3.4,0,6.3-2.5,6.9-5.9l0.3-1.5l5.4-34.5l0.4-1.9
		c0.5-3.4,3.4-5.9,6.9-5.9h4.3c28,0,49.9-11.4,56.3-44.2c2.7-13.7,1.3-25.2-5.8-33.3C211.4,49.6,208.7,47.6,205.6,45.9L205.6,45.9"
		/>
	<path class="st2" d="M205.6,45.9c2.2-13.9,0-23.3-7.5-31.9c-8.3-9.4-23.2-13.5-42.3-13.5h-55.5c-3.9,0-7.2,2.8-7.8,6.7L69.3,153.8
		c-0.5,2.9,1.8,5.5,4.7,5.5h34.3l8.6-54.6l-0.3,1.7c0.6-3.9,3.9-6.7,7.8-6.7h16.3c32,0,57-13,64.4-50.6
		C205.3,48.1,205.5,47,205.6,45.9"/>
	<path class="st1" d="M126.1,46.1c0.4-2.3,1.9-4.2,3.9-5.2c0.9-0.4,1.9-0.7,3-0.7h43.5c5.2,0,10,0.3,14.4,1c1.3,0.2,2.5,0.4,3.7,0.7
		s2.3,0.6,3.5,0.9c0.6,0.2,1.1,0.3,1.6,0.5c2.2,0.7,4.2,1.6,6,2.5c2.2-13.9,0-23.3-7.5-31.9c-8.3-9.4-23.2-13.5-42.3-13.5h-55.5
		c-3.9,0-7.2,2.8-7.8,6.7L69.3,153.8c-0.5,2.9,1.8,5.5,4.7,5.5h34.3l8.6-54.6L126.1,46.1z"/>
</g>
</svg>
