<?xml version="1.0" encoding="utf-8"?>
<!-- Generator: Adobe Illustrator 26.0.0, SVG Export Plug-In . SVG Version: 6.00 Build 0)  -->
<svg version="1.1" id="Layer_1" xmlns="http://www.w3.org/2000/svg" xmlns:xlink="http://www.w3.org/1999/xlink" x="0px" y="0px"
	 viewBox="0 0 175.7 118.3" style="enable-background:new 0 0 175.7 118.3;" xml:space="preserve">
<style type="text/css">
	.st0{fill:#005596;}
	.st1{fill-rule:evenodd;clip-rule:evenodd;fill:#FFFFFF;}
	.st2{fill-rule:evenodd;clip-rule:evenodd;fill:#005596;}
	.st3{fill-rule:evenodd;clip-rule:evenodd;fill:#F7AA0F;}
</style>
<g>
	<polygon class="st0" points="172.8,118.3 3,118.3 0,118.3 0,115.3 0,3 0,0 3,0 172.8,0 175.7,0 175.7,3 175.7,115.3 175.7,118.3 
		172.8,118.3 	"/>
	<polygon class="st1" points="172.8,115.3 3,115.3 3,3 172.8,3 172.8,115.3 	"/>
	<polygon class="st2" points="64.3,77.4 75.4,41 85.2,41 74.2,77.4 64.3,77.4 	"/>
	<path class="st2" d="M59.9,41.1l-8.8,15.4c-2.3,4-3.6,6.1-4.2,8.6h-0.1c0.2-3.2-0.3-7.2-0.3-9.4l-1-14.6H28.9l-0.2,1
		c4.3,0,6.8,2.1,7.5,6.5l3.2,28.9h10.2l20.6-36.3H59.9L59.9,41.1z"/>
	<path class="st2" d="M136.5,77.4l-0.3-5.4l-12.3,0l-2.5,5.4h-10.7l19.4-36.3h13.1l3.3,36.3H136.5L136.5,77.4z M135.3,56
		c-0.1-2.7-0.2-6.3,0-8.5h-0.1c-0.6,1.8-3.2,7.2-4.3,9.9l-3.7,8h8.6L135.3,56L135.3,56z"/>
	<path class="st2" d="M95.5,78.4c-6.9,0-11.6-2.2-14.8-4.2l4.7-7.2c3,1.7,5.3,3.6,10.6,3.6c1.7,0,3.4-0.4,4.3-2.1
		c1.4-2.4-0.3-3.6-4.2-5.8l-1.9-1.2c-5.7-3.9-8.2-7.6-5.5-14c1.7-4.1,6.2-7.3,13.7-7.3c5.1,0,10,2.2,12.8,4.4l-5.4,6.3
		c-2.7-2.2-5-3.3-7.6-3.3c-2.1,0-3.7,0.8-4.2,1.9c-1,2,0.3,3.4,3.3,5.3l2.3,1.4c6.9,4.4,8.6,8.9,6.8,13.2
		C107.5,76.8,101.6,78.4,95.5,78.4L95.5,78.4z"/>
	<path class="st2" d="M149.4,46H149v-2.6h1c0.6,0,0.9,0.2,0.9,0.7c0,0.5-0.3,0.7-0.7,0.7l0.7,1.1h-0.5l-0.7-1.1h-0.4V46L149.4,46z
		 M149.9,44.5c0.3,0,0.6,0,0.6-0.4c0-0.3-0.3-0.4-0.6-0.4h-0.5v0.8H149.9L149.9,44.5z M149.9,47c-1.3,0-2.3-1-2.3-2.3
		c0-1.4,1.1-2.3,2.3-2.3c1.2,0,2.3,0.9,2.3,2.3C152.1,46,151.1,47,149.9,47L149.9,47z M149.9,42.7c-1,0-1.8,0.8-1.8,1.9
		c0,1.1,0.7,1.9,1.8,1.9c1,0,1.8-0.8,1.8-1.9C151.6,43.5,150.9,42.7,149.9,42.7L149.9,42.7z"/>
	<polygon class="st3" points="168.6,88.7 7.5,88.7 7.5,110.2 168.6,110.2 168.6,88.7 	"/>
	<polygon class="st2" points="168.3,8.4 7.2,8.4 7.2,29.9 168.3,29.9 168.3,8.4 	"/>
	<path class="st2" d="M164.6,108.7h-0.4v-2.6h1c0.6,0,0.9,0.2,0.9,0.7c0,0.5-0.3,0.7-0.7,0.7l0.7,1.1h-0.5l-0.7-1.1h-0.4V108.7
		L164.6,108.7z M165.1,107.2c0.3,0,0.6,0,0.6-0.4c0-0.3-0.3-0.3-0.6-0.3h-0.5v0.8H165.1L165.1,107.2z M165.1,109.7
		c-1.3,0-2.3-1-2.3-2.3c0-1.4,1.1-2.3,2.3-2.3c1.2,0,2.3,0.9,2.3,2.3C167.4,108.8,166.3,109.7,165.1,109.7L165.1,109.7z
		 M165.1,105.4c-1,0-1.8,0.8-1.8,1.9c0,1.1,0.7,1.9,1.8,1.9c1,0,1.8-0.8,1.8-1.9C166.9,106.2,166.1,105.4,165.1,105.4L165.1,105.4z"
		/>
</g>
</svg>
